<mxfile host="Electron" modified="2024-11-02T08:33:36.602Z" agent="Mozilla/5.0 (Windows NT 10.0; Win64; x64) AppleWebKit/537.36 (KHTML, like Gecko) draw.io/24.0.4 Chrome/120.0.6099.109 Electron/28.1.0 Safari/537.36" etag="oSQqStoSwO65dYkm2f0W" version="24.0.4" type="device" pages="2">
  <diagram name="Інформаційні об`єкти" id="DCKpMuIsc8wlyhslamDY">
    <mxGraphModel dx="1707" dy="542" grid="1" gridSize="10" guides="1" tooltips="1" connect="1" arrows="1" fold="1" page="1" pageScale="1" pageWidth="827" pageHeight="1169" math="0" shadow="0">
      <root>
        <mxCell id="0" />
        <mxCell id="1" parent="0" />
        <mxCell id="2dNjcUOMYE_sHbrkTECG-1" value="Учень" style="swimlane;whiteSpace=wrap;html=1;labelBackgroundColor=none;fillColor=#56517E;strokeColor=#EEEEEE;fontColor=#ffffff;labelBorderColor=default;" parent="1" vertex="1">
          <mxGeometry x="-780" y="40" width="210" height="200" as="geometry" />
        </mxCell>
        <mxCell id="2dNjcUOMYE_sHbrkTECG-7" value="&lt;div&gt;&lt;span style=&quot;background-color: initial;&quot;&gt;ID учня&lt;/span&gt;&lt;/div&gt;&lt;div&gt;&lt;span style=&quot;background-color: initial;&quot;&gt;Номер паспорту&lt;/span&gt;&lt;/div&gt;&lt;div&gt;&lt;span style=&quot;background-color: initial;&quot;&gt;Тип паспорту&lt;/span&gt;&lt;/div&gt;&lt;div&gt;ПІБ&lt;/div&gt;&lt;div&gt;Дата народження&lt;/div&gt;&lt;div&gt;Стать&lt;/div&gt;&lt;div&gt;email&lt;/div&gt;&lt;div&gt;Контактний телефон&lt;/div&gt;Номер свідотства про освіту&lt;div&gt;&lt;/div&gt;&lt;div&gt;&lt;span style=&quot;background-color: initial;&quot;&gt;ІНН&lt;/span&gt;&lt;br&gt;&lt;/div&gt;&lt;div&gt;&lt;span style=&quot;background-color: initial;&quot;&gt;Примітка&lt;/span&gt;&lt;/div&gt;" style="text;html=1;align=left;verticalAlign=middle;resizable=0;points=[];autosize=1;strokeColor=none;fillColor=none;labelBackgroundColor=none;fontColor=#001933;labelBorderColor=none;" parent="2dNjcUOMYE_sHbrkTECG-1" vertex="1">
          <mxGeometry x="27" y="29" width="180" height="170" as="geometry" />
        </mxCell>
        <mxCell id="2dNjcUOMYE_sHbrkTECG-8" value="" style="shape=image;verticalLabelPosition=bottom;labelBackgroundColor=none;verticalAlign=top;aspect=fixed;imageAspect=0;image=data:image/png,iVBORw0KGgoAAAANSUhEUgAAAQAAAAEACAYAAABccqhmAAAACXBIWXMAAA7EAAAOxAGVKw4bAAAMBElEQVR4nO3df4hlZRnA8a/XYRlk2JZlGWQxWUxliMFEZLFAMxGx8A8zMbM0KxMrUgmLiEDERGLrDwmTEDKVkigzUTNbw/wZalupmda21qbrqqmjrrq7zM7aH889MDvO3Dn33vc95557vx94mGVn95537tznOb/e8z4gSZIkSZIkSZIkSZIkSZIkSZIkSZIkSZIkSZIkSZIkSZIkSZIkSZIkSZIkSZIkSZIkSZIkSZIkSZIkSZIkSZIkSZIkSZIkSZIkSZIkSZIkSZIkSZIkSZIkSZIkSZIkSZIkSZIkSVI5+9U9gATGgWngSOAw4BBgElgFrAQmgLEF/2cv8Cbwdvvry8CrwAvAv4FngKeB/7T/rTSUmlgAVgHHAx8B1gNHAAdk2tarwJ+Au4C7gb8DezJtS9IiWsChwMXARmAn8E5NsRW4DjiDKESSMlkFfB64F5ilvqRfKmaA64mjkRV53gJptLSIQ/priQSrO8nLxmbgMuDw9s8gqQsriD3pbQzm3r5s7CSOCqaxEEjLGgNOIA7z607elLEb+DlwFO++AyGNvBZx2+5Wmr3HXy5mgZuBqTRvm9R8k8DVxF6y7gStKl4Hvk3MS5BG0hhwGjHRpu6ErCueAE7G0wKNmLXATcAc9Sdh3TFLzCVY09c7KjVACziOuE1Wd+INWjxBzGSUhtI4MXtvB/Un26DGDHAeTiTSkFkF3Ej9CdaEmCNOCZxarKFwEHAP9SdW02Ijca1Eaqxp4ty27mRqajxKPM4sNc56YBv1J1HT40mikEqNYfKnja3ENGJp4B2NyZ8jthBPF0oD61Dig1p3sgxrbCIuqkoDZxJ4mPqTZNhjI7C65O9EqsQE8SRf3ckxKnET+dY91Ajbv4f/MwZcAZybdijqYBrYBTxAFASpNqcz3M/wD2q8BZxY4vcjZTMFvEj9yTCqsRk4eNnfkpTBBPAg9SfBqMcteD1AiXRzDeBrwOdyDUSlTRGdjB4hCoKU3TSxrFXdez8jYoZYU1HKbpy4F133h97YNzbiqYD6VKY34LnE8+oaPBcBP6x7EMpqLxkb1C5XAFYCf8FHVAfVq8B92LB0mL0MXAq8lOPFl1ud9nxM/kG2Gji17kEou3XAZ8lQBDodAUwSi3tMpt6opK79lgxFoFP/uq9i8kuD4mRinc2kObnUEcAq4CngwJQbk9S33wFnk+hIYKkjgLMw+aVBdBJxJJCkscxiMwHHgR+n2oCk5N5HrBa1kWhJ37PFjgBOwG620qA7FbiWPheLWVgAWjjfX2qK0+izCCy8CDhJdO91iqnUHL8CvkhMDOvKwiOA0zH5pabp+Uhg/kzAFvDpVCOSVKnTiGcGvgC8UfY/zT8FmASexU61UpPdQEziK1UE5h8BnEi1yb+HeNDhVWKwE+1Y0/4qqXvntL+WKgLzC8BHswxnX28CzwB3A/cC/wT+C7xNFJ81xMNH69vjmcYJSVK3ziFO6b9CF0cC28m3eMUO4DZiFlPZvXsLeD+wgTg1qXsBDsNoWlxHyYv605kGMEc8UXgq/Z1eTBHTH3dnGqdhDGtcQ4kicEGGDc8RK9im6m03DlwIvJJhrIYxzHENkT9L+mniDc61X3NVp432oAWcQSyKWfebahhNig10WADoyYQbmiNvQ8sWcZFjR8IxG8awxxzwLRZM/tu//RffY/nlwcraBnwCeD7R6y30DlGwVgIfpNzCptKo2w84lujstWn+N9aRrsrsBs7L/ZO0TWKnIsPoNnYQT/wCsfdfRzp/A36W8PU6eYnoUryrou1Jw2CCeG5gLUQBSHWuvge4mpjUU5X7iJbZkso7BLgSogCkulL/GnB7otcq601iskO2xgnSkDoTmG6Rbt79A2RqXrCMR4hnCiSVtwI4odOy4N3YC9yf6LW69Rxx7UFSl1osM0OopD3Ul4S7gKdr2rbUVHuBh1IWgBcSvE6vtte4bamJfgn8OeUpwGuJXqsXXgOQynuEeFR4b4u4kp5CiiOJXrmOoVTO08CnaO80W6RpLd0ipubW5b01bltqiueATxKL8gCRuCnuoa+gvjbiLdqzmiQt6WVi0d/H5/9lqlOAMeADCV6nF2uIBU0kLe41orX4fQu/0SLdXPqT6NxuPJfDgUNr2K7UBG8QTUN+s9g3W/TQTWQJU8QaflVqAR/HpcylxbwJXETc8ltUygJwAFFpqnQ4MadZ0r52Ecl/Q6d/1CLdPfQWcBaRlFUYA76EFwClhXYBXwd+QomL/OPALOkWHLiZdKsLdXIK8HrCcRvGMMRu4BK6vB63NfEALuxm4z2YAp5KOGbDGIaYBb5JDzvgexIPZIboNJzDgcBdicdrGE2PWeByerwg/qMMA/of6S/QrSVOMeYyjNfIF8VK0RtIe7q5XLxCfA6r/Fk3EzvUKj+js8TyeD1Pxz8/08BmiPORFHP1jyT6CZr8zYo54ojtQOIDejnVFIFtxHWiU9p/ruJn3QwcQyxYW9WOqu/kBzgq4wB3A3cCx9HbRKGVRIFKeZ3CqCbmJ3+hiiKwDfgY8Xlrtf+cuwgUyV9YQ/4iUBz29/0g3grgrcxv0AzR3+80YiXiTsXgAKJD8CXAH7EnYBNjseQv5CwC85O/kLsILEz+Qs4ikGTPP9/vMwxyqYE/297ejcBVxIfhu8RyxbcCj2H7ryZHp+Qv5CgCiyV/IVcRWCr5CzmKQPLkB/hGwgEaoxtlkr+Qsgh0Sv5CUQS2J/pZl0v+QsoikOywf6FcLcKN0Ylukr+QogiUSf5CqiJQNvkLa4hu2f0UgWzJDzF5YHMfgzNGO4rkn6R7/RSBbpK/0G8R6Db5C/0cCWRN/sKVPQzMMPpJ/sI4cBmws4vtbqf75C/0WgR6Tf5CL0WgkuSHeJzX++xGNzEH3EF/yV9YQVyLKlMEiuTvR7dFoN/kL3RzOlBZ8kO8IQ+XGJRhvEN8gG8hXX9JiCJwCZ1vS29lXofbPpUtAqmSv1CmCFSa/IXzOgzIMIookj9Vb8n5xoAvs/jTnv8APpR4e8sVgdTJX1jN0kWgluSHmHlX1dRJo5kxR8zXyJH8hTHgM8R8/mK7TxCzVnNYqgjkSv7CYkWgtuQvXEE1HySjeZFzz79QCzgZ2EL0nsy95NzCIpA7+Qvzi0DtyQ9wEC62Ybw7qkz++Q4mzpmrUBSd+6km+QurgV8Qd0JqTf7C96n/A2cMTlRx2D8oWtTzc04wQAvcrmXf8y9jdKNI/jq7PymD/Tt8bwfwHuDYisaiwbQXuB04m1hjXiNkNT6HP+rhnn+I7Vfi35wDXJ97IOrJd4BNGV9/L/AH3POPtHFiKa6690TGvnEXtkVXRdaTf8Ugo3zMAEd0/I1JJXS6CDjfduL2xIczjkXlXQr8migGUiUmgAepf+836rGx/buQKncUzhCsM7YTXZGk2pyHawbUEbNE81WpViuAH1B/QoxaXE41TVelZa0kfT9BY+m4Cc/7NWAOxg69VcSDpFluS0puGqcK54xNxKPZ0sA6huo7sI5CPAkc2sXvQarN8VgEUsZT5F/9RkrqeCwCKeIx3POroY7BBUX7iYeBQ7p+16UBciRx/lp3MjUt7iBWYZIaby3xuGrdSdWEmAOuwUU3NGQmiBmDThteOnYSXXAGYhVYKbUx4EzgRepPtkGLrcBJ9NbYUmqUKZw6PD/uBNb184ZKTXMA0fl1hvoTsK54nTjkdykvjawp4DbqT8aq415cxksC4pHi0xmN24VbgfNxry+9ywRwAcP5QNEM0WS1qp52UmOtAi4murHWnbj9xhbiWoeP8EpdGgfOIJ6Bb9L8gbn2mM/EQ32pb2PElOINDPbpwRbgKuIZCJfrkjJYQUyYuZpIuLr39I8R6/MdhUmvhivTG3CQtIjn5E8iuhYfTd4Vc94AHm/Ho8BDwL+InnlS4zWtACzUIgrA0cDhwGHEs/TriKvvy52P7wJeascL7a/PE7cn/0ok+54M45YkSZIkSZIkSZIkSZIkSZIkSZIkSZIkSZIkSZIkSZIkSZIkSZIkSZIkSZIkSZIkSZIkSZIkSZIkSZIkSZIkSZIkSZIkSZIkSZIkSZIkSZIkSZIkSZIkSZIkSZIkSZIkSZIkSZIkSWqU/wMrxcxEssRLrgAAAABJRU5ErkJggg==;fillColor=#56517E;strokeColor=#EEEEEE;fontColor=#001933;labelBorderColor=none;" parent="2dNjcUOMYE_sHbrkTECG-1" vertex="1">
          <mxGeometry x="7" y="33" width="16" height="17" as="geometry" />
        </mxCell>
        <mxCell id="2dNjcUOMYE_sHbrkTECG-3" value="Результат тесту" style="swimlane;whiteSpace=wrap;html=1;startSize=23;labelBackgroundColor=none;fillColor=#56517e;strokeColor=#36393d;fontColor=#ffffff;labelBorderColor=default;" parent="1" vertex="1">
          <mxGeometry x="-540" y="40" width="210" height="200" as="geometry" />
        </mxCell>
        <mxCell id="2dNjcUOMYE_sHbrkTECG-14" value="" style="shape=image;verticalLabelPosition=bottom;labelBackgroundColor=none;verticalAlign=top;aspect=fixed;imageAspect=0;image=data:image/png,iVBORw0KGgoAAAANSUhEUgAAAQAAAAEACAYAAABccqhmAAAACXBIWXMAAA7EAAAOxAGVKw4bAAAMBElEQVR4nO3df4hlZRnA8a/XYRlk2JZlGWQxWUxliMFEZLFAMxGx8A8zMbM0KxMrUgmLiEDERGLrDwmTEDKVkigzUTNbw/wZalupmda21qbrqqmjrrq7zM7aH889MDvO3Dn33vc95557vx94mGVn95537tznOb/e8z4gSZIkSZIkSZIkSZIkSZIkSZIkSZIkSZIkSZIkSZIkSZIkSZIkSZIkSZIkSZIkSZIkSZIkSZIkSZIkSZIkSZIkSZIkSZIkSZIkSZIkSZIkSZIkSZIkSZIkSZIkSZIkSZIkSZIkSVI5+9U9gATGgWngSOAw4BBgElgFrAQmgLEF/2cv8Cbwdvvry8CrwAvAv4FngKeB/7T/rTSUmlgAVgHHAx8B1gNHAAdk2tarwJ+Au4C7gb8DezJtS9IiWsChwMXARmAn8E5NsRW4DjiDKESSMlkFfB64F5ilvqRfKmaA64mjkRV53gJptLSIQ/priQSrO8nLxmbgMuDw9s8gqQsriD3pbQzm3r5s7CSOCqaxEEjLGgNOIA7z607elLEb+DlwFO++AyGNvBZx2+5Wmr3HXy5mgZuBqTRvm9R8k8DVxF6y7gStKl4Hvk3MS5BG0hhwGjHRpu6ErCueAE7G0wKNmLXATcAc9Sdh3TFLzCVY09c7KjVACziOuE1Wd+INWjxBzGSUhtI4MXtvB/Un26DGDHAeTiTSkFkF3Ej9CdaEmCNOCZxarKFwEHAP9SdW02Ijca1Eaqxp4ty27mRqajxKPM4sNc56YBv1J1HT40mikEqNYfKnja3ENGJp4B2NyZ8jthBPF0oD61Dig1p3sgxrbCIuqkoDZxJ4mPqTZNhjI7C65O9EqsQE8SRf3ckxKnET+dY91Ajbv4f/MwZcAZybdijqYBrYBTxAFASpNqcz3M/wD2q8BZxY4vcjZTMFvEj9yTCqsRk4eNnfkpTBBPAg9SfBqMcteD1AiXRzDeBrwOdyDUSlTRGdjB4hCoKU3TSxrFXdez8jYoZYU1HKbpy4F133h97YNzbiqYD6VKY34LnE8+oaPBcBP6x7EMpqLxkb1C5XAFYCf8FHVAfVq8B92LB0mL0MXAq8lOPFl1ud9nxM/kG2Gji17kEou3XAZ8lQBDodAUwSi3tMpt6opK79lgxFoFP/uq9i8kuD4mRinc2kObnUEcAq4CngwJQbk9S33wFnk+hIYKkjgLMw+aVBdBJxJJCkscxiMwHHgR+n2oCk5N5HrBa1kWhJ37PFjgBOwG620qA7FbiWPheLWVgAWjjfX2qK0+izCCy8CDhJdO91iqnUHL8CvkhMDOvKwiOA0zH5pabp+Uhg/kzAFvDpVCOSVKnTiGcGvgC8UfY/zT8FmASexU61UpPdQEziK1UE5h8BnEi1yb+HeNDhVWKwE+1Y0/4qqXvntL+WKgLzC8BHswxnX28CzwB3A/cC/wT+C7xNFJ81xMNH69vjmcYJSVK3ziFO6b9CF0cC28m3eMUO4DZiFlPZvXsLeD+wgTg1qXsBDsNoWlxHyYv605kGMEc8UXgq/Z1eTBHTH3dnGqdhDGtcQ4kicEGGDc8RK9im6m03DlwIvJJhrIYxzHENkT9L+mniDc61X3NVp432oAWcQSyKWfebahhNig10WADoyYQbmiNvQ8sWcZFjR8IxG8awxxzwLRZM/tu//RffY/nlwcraBnwCeD7R6y30DlGwVgIfpNzCptKo2w84lujstWn+N9aRrsrsBs7L/ZO0TWKnIsPoNnYQT/wCsfdfRzp/A36W8PU6eYnoUryrou1Jw2CCeG5gLUQBSHWuvge4mpjUU5X7iJbZkso7BLgSogCkulL/GnB7otcq601iskO2xgnSkDoTmG6Rbt79A2RqXrCMR4hnCiSVtwI4odOy4N3YC9yf6LW69Rxx7UFSl1osM0OopD3Ul4S7gKdr2rbUVHuBh1IWgBcSvE6vtte4bamJfgn8OeUpwGuJXqsXXgOQynuEeFR4b4u4kp5CiiOJXrmOoVTO08CnaO80W6RpLd0ipubW5b01bltqiueATxKL8gCRuCnuoa+gvjbiLdqzmiQt6WVi0d/H5/9lqlOAMeADCV6nF2uIBU0kLe41orX4fQu/0SLdXPqT6NxuPJfDgUNr2K7UBG8QTUN+s9g3W/TQTWQJU8QaflVqAR/HpcylxbwJXETc8ltUygJwAFFpqnQ4MadZ0r52Ecl/Q6d/1CLdPfQWcBaRlFUYA76EFwClhXYBXwd+QomL/OPALOkWHLiZdKsLdXIK8HrCcRvGMMRu4BK6vB63NfEALuxm4z2YAp5KOGbDGIaYBb5JDzvgexIPZIboNJzDgcBdicdrGE2PWeByerwg/qMMA/of6S/QrSVOMeYyjNfIF8VK0RtIe7q5XLxCfA6r/Fk3EzvUKj+js8TyeD1Pxz8/08BmiPORFHP1jyT6CZr8zYo54ojtQOIDejnVFIFtxHWiU9p/ruJn3QwcQyxYW9WOqu/kBzgq4wB3A3cCx9HbRKGVRIFKeZ3CqCbmJ3+hiiKwDfgY8Xlrtf+cuwgUyV9YQ/4iUBz29/0g3grgrcxv0AzR3+80YiXiTsXgAKJD8CXAH7EnYBNjseQv5CwC85O/kLsILEz+Qs4ikGTPP9/vMwxyqYE/297ejcBVxIfhu8RyxbcCj2H7ryZHp+Qv5CgCiyV/IVcRWCr5CzmKQPLkB/hGwgEaoxtlkr+Qsgh0Sv5CUQS2J/pZl0v+QsoikOywf6FcLcKN0Ylukr+QogiUSf5CqiJQNvkLa4hu2f0UgWzJDzF5YHMfgzNGO4rkn6R7/RSBbpK/0G8R6Db5C/0cCWRN/sKVPQzMMPpJ/sI4cBmws4vtbqf75C/0WgR6Tf5CL0WgkuSHeJzX++xGNzEH3EF/yV9YQVyLKlMEiuTvR7dFoN/kL3RzOlBZ8kO8IQ+XGJRhvEN8gG8hXX9JiCJwCZ1vS29lXofbPpUtAqmSv1CmCFSa/IXzOgzIMIookj9Vb8n5xoAvs/jTnv8APpR4e8sVgdTJX1jN0kWgluSHmHlX1dRJo5kxR8zXyJH8hTHgM8R8/mK7TxCzVnNYqgjkSv7CYkWgtuQvXEE1HySjeZFzz79QCzgZ2EL0nsy95NzCIpA7+Qvzi0DtyQ9wEC62Ybw7qkz++Q4mzpmrUBSd+6km+QurgV8Qd0JqTf7C96n/A2cMTlRx2D8oWtTzc04wQAvcrmXf8y9jdKNI/jq7PymD/Tt8bwfwHuDYisaiwbQXuB04m1hjXiNkNT6HP+rhnn+I7Vfi35wDXJ97IOrJd4BNGV9/L/AH3POPtHFiKa6690TGvnEXtkVXRdaTf8Ugo3zMAEd0/I1JJXS6CDjfduL2xIczjkXlXQr8migGUiUmgAepf+836rGx/buQKncUzhCsM7YTXZGk2pyHawbUEbNE81WpViuAH1B/QoxaXE41TVelZa0kfT9BY+m4Cc/7NWAOxg69VcSDpFluS0puGqcK54xNxKPZ0sA6huo7sI5CPAkc2sXvQarN8VgEUsZT5F/9RkrqeCwCKeIx3POroY7BBUX7iYeBQ7p+16UBciRx/lp3MjUt7iBWYZIaby3xuGrdSdWEmAOuwUU3NGQmiBmDThteOnYSXXAGYhVYKbUx4EzgRepPtkGLrcBJ9NbYUmqUKZw6PD/uBNb184ZKTXMA0fl1hvoTsK54nTjkdykvjawp4DbqT8aq415cxksC4pHi0xmN24VbgfNxry+9ywRwAcP5QNEM0WS1qp52UmOtAi4murHWnbj9xhbiWoeP8EpdGgfOIJ6Bb9L8gbn2mM/EQ32pb2PElOINDPbpwRbgKuIZCJfrkjJYQUyYuZpIuLr39I8R6/MdhUmvhivTG3CQtIjn5E8iuhYfTd4Vc94AHm/Ho8BDwL+InnlS4zWtACzUIgrA0cDhwGHEs/TriKvvy52P7wJeascL7a/PE7cn/0ok+54M45YkSZIkSZIkSZIkSZIkSZIkSZIkSZIkSZIkSZIkSZIkSZIkSZIkSZIkSZIkSZIkSZIkSZIkSZIkSZIkSZIkSZIkSZIkSZIkSZIkSZIkSZIkSZIkSZIkSZIkSZIkSZIkSZIkSZIkSWqU/wMrxcxEssRLrgAAAABJRU5ErkJggg==;fillColor=#56517E;strokeColor=#EEEEEE;fontColor=#001933;labelBorderColor=none;" parent="2dNjcUOMYE_sHbrkTECG-3" vertex="1">
          <mxGeometry x="10" y="40" width="16" height="17" as="geometry" />
        </mxCell>
        <mxCell id="P3_MFHKCCuHNZ3Ln424V-4" value="&lt;div&gt;Шифр результату&lt;/div&gt;&lt;div&gt;&lt;span style=&quot;background-color: initial;&quot;&gt;ID умови&lt;/span&gt;&lt;/div&gt;&lt;div&gt;&lt;span style=&quot;background-color: initial; text-wrap: nowrap;&quot;&gt;ID учня&lt;/span&gt;&lt;br&gt;&lt;/div&gt;&lt;div style=&quot;text-wrap: nowrap;&quot;&gt;&lt;span style=&quot;background-color: initial; text-wrap: wrap;&quot;&gt;Отриманий бал&amp;nbsp;&lt;/span&gt;&lt;br&gt;&lt;/div&gt;&lt;div&gt;Статус(здано чи ні)&lt;/div&gt;&lt;div&gt;&lt;div style=&quot;text-wrap: nowrap;&quot;&gt;Шифр навчального закладу&lt;/div&gt;&lt;/div&gt;&lt;div&gt;Дата проходження&lt;/div&gt;" style="text;html=1;align=left;verticalAlign=middle;whiteSpace=wrap;rounded=0;labelBackgroundColor=none;fontColor=#001933;labelBorderColor=none;" parent="2dNjcUOMYE_sHbrkTECG-3" vertex="1">
          <mxGeometry x="35" y="27" width="140" height="130" as="geometry" />
        </mxCell>
        <mxCell id="2dNjcUOMYE_sHbrkTECG-23" value="Навчальний заклад" style="swimlane;whiteSpace=wrap;html=1;labelBackgroundColor=none;fillColor=#56517E;strokeColor=#EEEEEE;fontColor=#ffffff;labelBorderColor=default;" parent="1" vertex="1">
          <mxGeometry x="-781" y="260" width="210" height="200" as="geometry" />
        </mxCell>
        <mxCell id="2dNjcUOMYE_sHbrkTECG-24" value="&lt;div&gt;Шифр навчального закладу&lt;/div&gt;&lt;div&gt;Місто&lt;/div&gt;&lt;div&gt;Область&lt;/div&gt;&lt;div&gt;Тип&lt;/div&gt;&lt;div&gt;E-mail&lt;/div&gt;&lt;div&gt;ПІБ відповідального&lt;/div&gt;" style="text;html=1;align=left;verticalAlign=middle;resizable=0;points=[];autosize=1;strokeColor=none;fillColor=none;labelBackgroundColor=none;fontColor=#001933;labelBorderColor=none;" parent="2dNjcUOMYE_sHbrkTECG-23" vertex="1">
          <mxGeometry x="27" y="28" width="180" height="100" as="geometry" />
        </mxCell>
        <mxCell id="2dNjcUOMYE_sHbrkTECG-25" value="" style="shape=image;verticalLabelPosition=bottom;labelBackgroundColor=none;verticalAlign=top;aspect=fixed;imageAspect=0;image=data:image/png,iVBORw0KGgoAAAANSUhEUgAAAQAAAAEACAYAAABccqhmAAAACXBIWXMAAA7EAAAOxAGVKw4bAAAMBElEQVR4nO3df4hlZRnA8a/XYRlk2JZlGWQxWUxliMFEZLFAMxGx8A8zMbM0KxMrUgmLiEDERGLrDwmTEDKVkigzUTNbw/wZalupmda21qbrqqmjrrq7zM7aH889MDvO3Dn33vc95557vx94mGVn95537tznOb/e8z4gSZIkSZIkSZIkSZIkSZIkSZIkSZIkSZIkSZIkSZIkSZIkSZIkSZIkSZIkSZIkSZIkSZIkSZIkSZIkSZIkSZIkSZIkSZIkSZIkSZIkSZIkSZIkSZIkSZIkSZIkSZIkSZIkSZIkSVI5+9U9gATGgWngSOAw4BBgElgFrAQmgLEF/2cv8Cbwdvvry8CrwAvAv4FngKeB/7T/rTSUmlgAVgHHAx8B1gNHAAdk2tarwJ+Au4C7gb8DezJtS9IiWsChwMXARmAn8E5NsRW4DjiDKESSMlkFfB64F5ilvqRfKmaA64mjkRV53gJptLSIQ/priQSrO8nLxmbgMuDw9s8gqQsriD3pbQzm3r5s7CSOCqaxEEjLGgNOIA7z607elLEb+DlwFO++AyGNvBZx2+5Wmr3HXy5mgZuBqTRvm9R8k8DVxF6y7gStKl4Hvk3MS5BG0hhwGjHRpu6ErCueAE7G0wKNmLXATcAc9Sdh3TFLzCVY09c7KjVACziOuE1Wd+INWjxBzGSUhtI4MXtvB/Un26DGDHAeTiTSkFkF3Ej9CdaEmCNOCZxarKFwEHAP9SdW02Ijca1Eaqxp4ty27mRqajxKPM4sNc56YBv1J1HT40mikEqNYfKnja3ENGJp4B2NyZ8jthBPF0oD61Dig1p3sgxrbCIuqkoDZxJ4mPqTZNhjI7C65O9EqsQE8SRf3ckxKnET+dY91Ajbv4f/MwZcAZybdijqYBrYBTxAFASpNqcz3M/wD2q8BZxY4vcjZTMFvEj9yTCqsRk4eNnfkpTBBPAg9SfBqMcteD1AiXRzDeBrwOdyDUSlTRGdjB4hCoKU3TSxrFXdez8jYoZYU1HKbpy4F133h97YNzbiqYD6VKY34LnE8+oaPBcBP6x7EMpqLxkb1C5XAFYCf8FHVAfVq8B92LB0mL0MXAq8lOPFl1ud9nxM/kG2Gji17kEou3XAZ8lQBDodAUwSi3tMpt6opK79lgxFoFP/uq9i8kuD4mRinc2kObnUEcAq4CngwJQbk9S33wFnk+hIYKkjgLMw+aVBdBJxJJCkscxiMwHHgR+n2oCk5N5HrBa1kWhJ37PFjgBOwG620qA7FbiWPheLWVgAWjjfX2qK0+izCCy8CDhJdO91iqnUHL8CvkhMDOvKwiOA0zH5pabp+Uhg/kzAFvDpVCOSVKnTiGcGvgC8UfY/zT8FmASexU61UpPdQEziK1UE5h8BnEi1yb+HeNDhVWKwE+1Y0/4qqXvntL+WKgLzC8BHswxnX28CzwB3A/cC/wT+C7xNFJ81xMNH69vjmcYJSVK3ziFO6b9CF0cC28m3eMUO4DZiFlPZvXsLeD+wgTg1qXsBDsNoWlxHyYv605kGMEc8UXgq/Z1eTBHTH3dnGqdhDGtcQ4kicEGGDc8RK9im6m03DlwIvJJhrIYxzHENkT9L+mniDc61X3NVp432oAWcQSyKWfebahhNig10WADoyYQbmiNvQ8sWcZFjR8IxG8awxxzwLRZM/tu//RffY/nlwcraBnwCeD7R6y30DlGwVgIfpNzCptKo2w84lujstWn+N9aRrsrsBs7L/ZO0TWKnIsPoNnYQT/wCsfdfRzp/A36W8PU6eYnoUryrou1Jw2CCeG5gLUQBSHWuvge4mpjUU5X7iJbZkso7BLgSogCkulL/GnB7otcq601iskO2xgnSkDoTmG6Rbt79A2RqXrCMR4hnCiSVtwI4odOy4N3YC9yf6LW69Rxx7UFSl1osM0OopD3Ul4S7gKdr2rbUVHuBh1IWgBcSvE6vtte4bamJfgn8OeUpwGuJXqsXXgOQynuEeFR4b4u4kp5CiiOJXrmOoVTO08CnaO80W6RpLd0ipubW5b01bltqiueATxKL8gCRuCnuoa+gvjbiLdqzmiQt6WVi0d/H5/9lqlOAMeADCV6nF2uIBU0kLe41orX4fQu/0SLdXPqT6NxuPJfDgUNr2K7UBG8QTUN+s9g3W/TQTWQJU8QaflVqAR/HpcylxbwJXETc8ltUygJwAFFpqnQ4MadZ0r52Ecl/Q6d/1CLdPfQWcBaRlFUYA76EFwClhXYBXwd+QomL/OPALOkWHLiZdKsLdXIK8HrCcRvGMMRu4BK6vB63NfEALuxm4z2YAp5KOGbDGIaYBb5JDzvgexIPZIboNJzDgcBdicdrGE2PWeByerwg/qMMA/of6S/QrSVOMeYyjNfIF8VK0RtIe7q5XLxCfA6r/Fk3EzvUKj+js8TyeD1Pxz8/08BmiPORFHP1jyT6CZr8zYo54ojtQOIDejnVFIFtxHWiU9p/ruJn3QwcQyxYW9WOqu/kBzgq4wB3A3cCx9HbRKGVRIFKeZ3CqCbmJ3+hiiKwDfgY8Xlrtf+cuwgUyV9YQ/4iUBz29/0g3grgrcxv0AzR3+80YiXiTsXgAKJD8CXAH7EnYBNjseQv5CwC85O/kLsILEz+Qs4ikGTPP9/vMwxyqYE/297ejcBVxIfhu8RyxbcCj2H7ryZHp+Qv5CgCiyV/IVcRWCr5CzmKQPLkB/hGwgEaoxtlkr+Qsgh0Sv5CUQS2J/pZl0v+QsoikOywf6FcLcKN0Ylukr+QogiUSf5CqiJQNvkLa4hu2f0UgWzJDzF5YHMfgzNGO4rkn6R7/RSBbpK/0G8R6Db5C/0cCWRN/sKVPQzMMPpJ/sI4cBmws4vtbqf75C/0WgR6Tf5CL0WgkuSHeJzX++xGNzEH3EF/yV9YQVyLKlMEiuTvR7dFoN/kL3RzOlBZ8kO8IQ+XGJRhvEN8gG8hXX9JiCJwCZ1vS29lXofbPpUtAqmSv1CmCFSa/IXzOgzIMIookj9Vb8n5xoAvs/jTnv8APpR4e8sVgdTJX1jN0kWgluSHmHlX1dRJo5kxR8zXyJH8hTHgM8R8/mK7TxCzVnNYqgjkSv7CYkWgtuQvXEE1HySjeZFzz79QCzgZ2EL0nsy95NzCIpA7+Qvzi0DtyQ9wEC62Ybw7qkz++Q4mzpmrUBSd+6km+QurgV8Qd0JqTf7C96n/A2cMTlRx2D8oWtTzc04wQAvcrmXf8y9jdKNI/jq7PymD/Tt8bwfwHuDYisaiwbQXuB04m1hjXiNkNT6HP+rhnn+I7Vfi35wDXJ97IOrJd4BNGV9/L/AH3POPtHFiKa6690TGvnEXtkVXRdaTf8Ugo3zMAEd0/I1JJXS6CDjfduL2xIczjkXlXQr8migGUiUmgAepf+836rGx/buQKncUzhCsM7YTXZGk2pyHawbUEbNE81WpViuAH1B/QoxaXE41TVelZa0kfT9BY+m4Cc/7NWAOxg69VcSDpFluS0puGqcK54xNxKPZ0sA6huo7sI5CPAkc2sXvQarN8VgEUsZT5F/9RkrqeCwCKeIx3POroY7BBUX7iYeBQ7p+16UBciRx/lp3MjUt7iBWYZIaby3xuGrdSdWEmAOuwUU3NGQmiBmDThteOnYSXXAGYhVYKbUx4EzgRepPtkGLrcBJ9NbYUmqUKZw6PD/uBNb184ZKTXMA0fl1hvoTsK54nTjkdykvjawp4DbqT8aq415cxksC4pHi0xmN24VbgfNxry+9ywRwAcP5QNEM0WS1qp52UmOtAi4murHWnbj9xhbiWoeP8EpdGgfOIJ6Bb9L8gbn2mM/EQ32pb2PElOINDPbpwRbgKuIZCJfrkjJYQUyYuZpIuLr39I8R6/MdhUmvhivTG3CQtIjn5E8iuhYfTd4Vc94AHm/Ho8BDwL+InnlS4zWtACzUIgrA0cDhwGHEs/TriKvvy52P7wJeascL7a/PE7cn/0ok+54M45YkSZIkSZIkSZIkSZIkSZIkSZIkSZIkSZIkSZIkSZIkSZIkSZIkSZIkSZIkSZIkSZIkSZIkSZIkSZIkSZIkSZIkSZIkSZIkSZIkSZIkSZIkSZIkSZIkSZIkSZIkSZIkSZIkSZIkSWqU/wMrxcxEssRLrgAAAABJRU5ErkJggg==;fillColor=#56517E;strokeColor=#EEEEEE;fontColor=#001933;labelBorderColor=none;" parent="2dNjcUOMYE_sHbrkTECG-23" vertex="1">
          <mxGeometry x="7" y="33" width="16" height="17" as="geometry" />
        </mxCell>
        <mxCell id="sancW2MPpbxxTtlKX2UO-2" value="Предмети" style="swimlane;whiteSpace=wrap;html=1;labelBackgroundColor=none;fillColor=#56517E;strokeColor=#EEEEEE;fontColor=#ffffff;labelBorderColor=default;perimeterSpacing=1;" parent="1" vertex="1">
          <mxGeometry x="-100" y="40" width="210" height="200" as="geometry" />
        </mxCell>
        <mxCell id="sancW2MPpbxxTtlKX2UO-4" value="" style="shape=image;verticalLabelPosition=bottom;labelBackgroundColor=none;verticalAlign=top;aspect=fixed;imageAspect=0;image=data:image/png,iVBORw0KGgoAAAANSUhEUgAAAQAAAAEACAYAAABccqhmAAAACXBIWXMAAA7EAAAOxAGVKw4bAAAMBElEQVR4nO3df4hlZRnA8a/XYRlk2JZlGWQxWUxliMFEZLFAMxGx8A8zMbM0KxMrUgmLiEDERGLrDwmTEDKVkigzUTNbw/wZalupmda21qbrqqmjrrq7zM7aH889MDvO3Dn33vc95557vx94mGVn95537tznOb/e8z4gSZIkSZIkSZIkSZIkSZIkSZIkSZIkSZIkSZIkSZIkSZIkSZIkSZIkSZIkSZIkSZIkSZIkSZIkSZIkSZIkSZIkSZIkSZIkSZIkSZIkSZIkSZIkSZIkSZIkSZIkSZIkSZIkSZIkSVI5+9U9gATGgWngSOAw4BBgElgFrAQmgLEF/2cv8Cbwdvvry8CrwAvAv4FngKeB/7T/rTSUmlgAVgHHAx8B1gNHAAdk2tarwJ+Au4C7gb8DezJtS9IiWsChwMXARmAn8E5NsRW4DjiDKESSMlkFfB64F5ilvqRfKmaA64mjkRV53gJptLSIQ/priQSrO8nLxmbgMuDw9s8gqQsriD3pbQzm3r5s7CSOCqaxEEjLGgNOIA7z607elLEb+DlwFO++AyGNvBZx2+5Wmr3HXy5mgZuBqTRvm9R8k8DVxF6y7gStKl4Hvk3MS5BG0hhwGjHRpu6ErCueAE7G0wKNmLXATcAc9Sdh3TFLzCVY09c7KjVACziOuE1Wd+INWjxBzGSUhtI4MXtvB/Un26DGDHAeTiTSkFkF3Ej9CdaEmCNOCZxarKFwEHAP9SdW02Ijca1Eaqxp4ty27mRqajxKPM4sNc56YBv1J1HT40mikEqNYfKnja3ENGJp4B2NyZ8jthBPF0oD61Dig1p3sgxrbCIuqkoDZxJ4mPqTZNhjI7C65O9EqsQE8SRf3ckxKnET+dY91Ajbv4f/MwZcAZybdijqYBrYBTxAFASpNqcz3M/wD2q8BZxY4vcjZTMFvEj9yTCqsRk4eNnfkpTBBPAg9SfBqMcteD1AiXRzDeBrwOdyDUSlTRGdjB4hCoKU3TSxrFXdez8jYoZYU1HKbpy4F133h97YNzbiqYD6VKY34LnE8+oaPBcBP6x7EMpqLxkb1C5XAFYCf8FHVAfVq8B92LB0mL0MXAq8lOPFl1ud9nxM/kG2Gji17kEou3XAZ8lQBDodAUwSi3tMpt6opK79lgxFoFP/uq9i8kuD4mRinc2kObnUEcAq4CngwJQbk9S33wFnk+hIYKkjgLMw+aVBdBJxJJCkscxiMwHHgR+n2oCk5N5HrBa1kWhJ37PFjgBOwG620qA7FbiWPheLWVgAWjjfX2qK0+izCCy8CDhJdO91iqnUHL8CvkhMDOvKwiOA0zH5pabp+Uhg/kzAFvDpVCOSVKnTiGcGvgC8UfY/zT8FmASexU61UpPdQEziK1UE5h8BnEi1yb+HeNDhVWKwE+1Y0/4qqXvntL+WKgLzC8BHswxnX28CzwB3A/cC/wT+C7xNFJ81xMNH69vjmcYJSVK3ziFO6b9CF0cC28m3eMUO4DZiFlPZvXsLeD+wgTg1qXsBDsNoWlxHyYv605kGMEc8UXgq/Z1eTBHTH3dnGqdhDGtcQ4kicEGGDc8RK9im6m03DlwIvJJhrIYxzHENkT9L+mniDc61X3NVp432oAWcQSyKWfebahhNig10WADoyYQbmiNvQ8sWcZFjR8IxG8awxxzwLRZM/tu//RffY/nlwcraBnwCeD7R6y30DlGwVgIfpNzCptKo2w84lujstWn+N9aRrsrsBs7L/ZO0TWKnIsPoNnYQT/wCsfdfRzp/A36W8PU6eYnoUryrou1Jw2CCeG5gLUQBSHWuvge4mpjUU5X7iJbZkso7BLgSogCkulL/GnB7otcq601iskO2xgnSkDoTmG6Rbt79A2RqXrCMR4hnCiSVtwI4odOy4N3YC9yf6LW69Rxx7UFSl1osM0OopD3Ul4S7gKdr2rbUVHuBh1IWgBcSvE6vtte4bamJfgn8OeUpwGuJXqsXXgOQynuEeFR4b4u4kp5CiiOJXrmOoVTO08CnaO80W6RpLd0ipubW5b01bltqiueATxKL8gCRuCnuoa+gvjbiLdqzmiQt6WVi0d/H5/9lqlOAMeADCV6nF2uIBU0kLe41orX4fQu/0SLdXPqT6NxuPJfDgUNr2K7UBG8QTUN+s9g3W/TQTWQJU8QaflVqAR/HpcylxbwJXETc8ltUygJwAFFpqnQ4MadZ0r52Ecl/Q6d/1CLdPfQWcBaRlFUYA76EFwClhXYBXwd+QomL/OPALOkWHLiZdKsLdXIK8HrCcRvGMMRu4BK6vB63NfEALuxm4z2YAp5KOGbDGIaYBb5JDzvgexIPZIboNJzDgcBdicdrGE2PWeByerwg/qMMA/of6S/QrSVOMeYyjNfIF8VK0RtIe7q5XLxCfA6r/Fk3EzvUKj+js8TyeD1Pxz8/08BmiPORFHP1jyT6CZr8zYo54ojtQOIDejnVFIFtxHWiU9p/ruJn3QwcQyxYW9WOqu/kBzgq4wB3A3cCx9HbRKGVRIFKeZ3CqCbmJ3+hiiKwDfgY8Xlrtf+cuwgUyV9YQ/4iUBz29/0g3grgrcxv0AzR3+80YiXiTsXgAKJD8CXAH7EnYBNjseQv5CwC85O/kLsILEz+Qs4ikGTPP9/vMwxyqYE/297ejcBVxIfhu8RyxbcCj2H7ryZHp+Qv5CgCiyV/IVcRWCr5CzmKQPLkB/hGwgEaoxtlkr+Qsgh0Sv5CUQS2J/pZl0v+QsoikOywf6FcLcKN0Ylukr+QogiUSf5CqiJQNvkLa4hu2f0UgWzJDzF5YHMfgzNGO4rkn6R7/RSBbpK/0G8R6Db5C/0cCWRN/sKVPQzMMPpJ/sI4cBmws4vtbqf75C/0WgR6Tf5CL0WgkuSHeJzX++xGNzEH3EF/yV9YQVyLKlMEiuTvR7dFoN/kL3RzOlBZ8kO8IQ+XGJRhvEN8gG8hXX9JiCJwCZ1vS29lXofbPpUtAqmSv1CmCFSa/IXzOgzIMIookj9Vb8n5xoAvs/jTnv8APpR4e8sVgdTJX1jN0kWgluSHmHlX1dRJo5kxR8zXyJH8hTHgM8R8/mK7TxCzVnNYqgjkSv7CYkWgtuQvXEE1HySjeZFzz79QCzgZ2EL0nsy95NzCIpA7+Qvzi0DtyQ9wEC62Ybw7qkz++Q4mzpmrUBSd+6km+QurgV8Qd0JqTf7C96n/A2cMTlRx2D8oWtTzc04wQAvcrmXf8y9jdKNI/jq7PymD/Tt8bwfwHuDYisaiwbQXuB04m1hjXiNkNT6HP+rhnn+I7Vfi35wDXJ97IOrJd4BNGV9/L/AH3POPtHFiKa6690TGvnEXtkVXRdaTf8Ugo3zMAEd0/I1JJXS6CDjfduL2xIczjkXlXQr8migGUiUmgAepf+836rGx/buQKncUzhCsM7YTXZGk2pyHawbUEbNE81WpViuAH1B/QoxaXE41TVelZa0kfT9BY+m4Cc/7NWAOxg69VcSDpFluS0puGqcK54xNxKPZ0sA6huo7sI5CPAkc2sXvQarN8VgEUsZT5F/9RkrqeCwCKeIx3POroY7BBUX7iYeBQ7p+16UBciRx/lp3MjUt7iBWYZIaby3xuGrdSdWEmAOuwUU3NGQmiBmDThteOnYSXXAGYhVYKbUx4EzgRepPtkGLrcBJ9NbYUmqUKZw6PD/uBNb184ZKTXMA0fl1hvoTsK54nTjkdykvjawp4DbqT8aq415cxksC4pHi0xmN24VbgfNxry+9ywRwAcP5QNEM0WS1qp52UmOtAi4murHWnbj9xhbiWoeP8EpdGgfOIJ6Bb9L8gbn2mM/EQ32pb2PElOINDPbpwRbgKuIZCJfrkjJYQUyYuZpIuLr39I8R6/MdhUmvhivTG3CQtIjn5E8iuhYfTd4Vc94AHm/Ho8BDwL+InnlS4zWtACzUIgrA0cDhwGHEs/TriKvvy52P7wJeascL7a/PE7cn/0ok+54M45YkSZIkSZIkSZIkSZIkSZIkSZIkSZIkSZIkSZIkSZIkSZIkSZIkSZIkSZIkSZIkSZIkSZIkSZIkSZIkSZIkSZIkSZIkSZIkSZIkSZIkSZIkSZIkSZIkSZIkSZIkSZIkSZIkSZIkSWqU/wMrxcxEssRLrgAAAABJRU5ErkJggg==;fillColor=#56517E;strokeColor=#EEEEEE;fontColor=#001933;labelBorderColor=none;" parent="sancW2MPpbxxTtlKX2UO-2" vertex="1">
          <mxGeometry x="7" y="33" width="16" height="17" as="geometry" />
        </mxCell>
        <mxCell id="P3_MFHKCCuHNZ3Ln424V-2" value="&lt;div&gt;Код предмету&lt;/div&gt;&lt;div&gt;&lt;span style=&quot;text-wrap: nowrap;&quot;&gt;Назва предмету&lt;/span&gt;&lt;/div&gt;&lt;div&gt;&lt;div&gt;&lt;span style=&quot;text-wrap: nowrap;&quot;&gt;Опис&lt;/span&gt;&lt;/div&gt;&lt;div&gt;&lt;span style=&quot;text-wrap: nowrap;&quot;&gt;Піктограма дисципліни&lt;/span&gt;&lt;/div&gt;&lt;div&gt;Зразок завдань&lt;/div&gt;&lt;/div&gt;" style="text;html=1;align=left;verticalAlign=middle;whiteSpace=wrap;rounded=0;labelBackgroundColor=none;fontColor=#001933;labelBorderColor=none;" parent="sancW2MPpbxxTtlKX2UO-2" vertex="1">
          <mxGeometry x="29" y="5" width="140" height="130" as="geometry" />
        </mxCell>
        <mxCell id="_kdlp6c_PoI0e7NXFLLm-1" value="Сертифікат" style="swimlane;whiteSpace=wrap;html=1;startSize=23;labelBackgroundColor=none;fillColor=#56517e;strokeColor=#36393d;fontColor=#ffffff;labelBorderColor=default;" parent="1" vertex="1">
          <mxGeometry x="-540" y="260" width="210" height="200" as="geometry" />
        </mxCell>
        <mxCell id="_kdlp6c_PoI0e7NXFLLm-2" value="" style="shape=image;verticalLabelPosition=bottom;labelBackgroundColor=none;verticalAlign=top;aspect=fixed;imageAspect=0;image=data:image/png,iVBORw0KGgoAAAANSUhEUgAAAQAAAAEACAYAAABccqhmAAAACXBIWXMAAA7EAAAOxAGVKw4bAAAMBElEQVR4nO3df4hlZRnA8a/XYRlk2JZlGWQxWUxliMFEZLFAMxGx8A8zMbM0KxMrUgmLiEDERGLrDwmTEDKVkigzUTNbw/wZalupmda21qbrqqmjrrq7zM7aH889MDvO3Dn33vc95557vx94mGVn95537tznOb/e8z4gSZIkSZIkSZIkSZIkSZIkSZIkSZIkSZIkSZIkSZIkSZIkSZIkSZIkSZIkSZIkSZIkSZIkSZIkSZIkSZIkSZIkSZIkSZIkSZIkSZIkSZIkSZIkSZIkSZIkSZIkSZIkSZIkSZIkSVI5+9U9gATGgWngSOAw4BBgElgFrAQmgLEF/2cv8Cbwdvvry8CrwAvAv4FngKeB/7T/rTSUmlgAVgHHAx8B1gNHAAdk2tarwJ+Au4C7gb8DezJtS9IiWsChwMXARmAn8E5NsRW4DjiDKESSMlkFfB64F5ilvqRfKmaA64mjkRV53gJptLSIQ/priQSrO8nLxmbgMuDw9s8gqQsriD3pbQzm3r5s7CSOCqaxEEjLGgNOIA7z607elLEb+DlwFO++AyGNvBZx2+5Wmr3HXy5mgZuBqTRvm9R8k8DVxF6y7gStKl4Hvk3MS5BG0hhwGjHRpu6ErCueAE7G0wKNmLXATcAc9Sdh3TFLzCVY09c7KjVACziOuE1Wd+INWjxBzGSUhtI4MXtvB/Un26DGDHAeTiTSkFkF3Ej9CdaEmCNOCZxarKFwEHAP9SdW02Ijca1Eaqxp4ty27mRqajxKPM4sNc56YBv1J1HT40mikEqNYfKnja3ENGJp4B2NyZ8jthBPF0oD61Dig1p3sgxrbCIuqkoDZxJ4mPqTZNhjI7C65O9EqsQE8SRf3ckxKnET+dY91Ajbv4f/MwZcAZybdijqYBrYBTxAFASpNqcz3M/wD2q8BZxY4vcjZTMFvEj9yTCqsRk4eNnfkpTBBPAg9SfBqMcteD1AiXRzDeBrwOdyDUSlTRGdjB4hCoKU3TSxrFXdez8jYoZYU1HKbpy4F133h97YNzbiqYD6VKY34LnE8+oaPBcBP6x7EMpqLxkb1C5XAFYCf8FHVAfVq8B92LB0mL0MXAq8lOPFl1ud9nxM/kG2Gji17kEou3XAZ8lQBDodAUwSi3tMpt6opK79lgxFoFP/uq9i8kuD4mRinc2kObnUEcAq4CngwJQbk9S33wFnk+hIYKkjgLMw+aVBdBJxJJCkscxiMwHHgR+n2oCk5N5HrBa1kWhJ37PFjgBOwG620qA7FbiWPheLWVgAWjjfX2qK0+izCCy8CDhJdO91iqnUHL8CvkhMDOvKwiOA0zH5pabp+Uhg/kzAFvDpVCOSVKnTiGcGvgC8UfY/zT8FmASexU61UpPdQEziK1UE5h8BnEi1yb+HeNDhVWKwE+1Y0/4qqXvntL+WKgLzC8BHswxnX28CzwB3A/cC/wT+C7xNFJ81xMNH69vjmcYJSVK3ziFO6b9CF0cC28m3eMUO4DZiFlPZvXsLeD+wgTg1qXsBDsNoWlxHyYv605kGMEc8UXgq/Z1eTBHTH3dnGqdhDGtcQ4kicEGGDc8RK9im6m03DlwIvJJhrIYxzHENkT9L+mniDc61X3NVp432oAWcQSyKWfebahhNig10WADoyYQbmiNvQ8sWcZFjR8IxG8awxxzwLRZM/tu//RffY/nlwcraBnwCeD7R6y30DlGwVgIfpNzCptKo2w84lujstWn+N9aRrsrsBs7L/ZO0TWKnIsPoNnYQT/wCsfdfRzp/A36W8PU6eYnoUryrou1Jw2CCeG5gLUQBSHWuvge4mpjUU5X7iJbZkso7BLgSogCkulL/GnB7otcq601iskO2xgnSkDoTmG6Rbt79A2RqXrCMR4hnCiSVtwI4odOy4N3YC9yf6LW69Rxx7UFSl1osM0OopD3Ul4S7gKdr2rbUVHuBh1IWgBcSvE6vtte4bamJfgn8OeUpwGuJXqsXXgOQynuEeFR4b4u4kp5CiiOJXrmOoVTO08CnaO80W6RpLd0ipubW5b01bltqiueATxKL8gCRuCnuoa+gvjbiLdqzmiQt6WVi0d/H5/9lqlOAMeADCV6nF2uIBU0kLe41orX4fQu/0SLdXPqT6NxuPJfDgUNr2K7UBG8QTUN+s9g3W/TQTWQJU8QaflVqAR/HpcylxbwJXETc8ltUygJwAFFpqnQ4MadZ0r52Ecl/Q6d/1CLdPfQWcBaRlFUYA76EFwClhXYBXwd+QomL/OPALOkWHLiZdKsLdXIK8HrCcRvGMMRu4BK6vB63NfEALuxm4z2YAp5KOGbDGIaYBb5JDzvgexIPZIboNJzDgcBdicdrGE2PWeByerwg/qMMA/of6S/QrSVOMeYyjNfIF8VK0RtIe7q5XLxCfA6r/Fk3EzvUKj+js8TyeD1Pxz8/08BmiPORFHP1jyT6CZr8zYo54ojtQOIDejnVFIFtxHWiU9p/ruJn3QwcQyxYW9WOqu/kBzgq4wB3A3cCx9HbRKGVRIFKeZ3CqCbmJ3+hiiKwDfgY8Xlrtf+cuwgUyV9YQ/4iUBz29/0g3grgrcxv0AzR3+80YiXiTsXgAKJD8CXAH7EnYBNjseQv5CwC85O/kLsILEz+Qs4ikGTPP9/vMwxyqYE/297ejcBVxIfhu8RyxbcCj2H7ryZHp+Qv5CgCiyV/IVcRWCr5CzmKQPLkB/hGwgEaoxtlkr+Qsgh0Sv5CUQS2J/pZl0v+QsoikOywf6FcLcKN0Ylukr+QogiUSf5CqiJQNvkLa4hu2f0UgWzJDzF5YHMfgzNGO4rkn6R7/RSBbpK/0G8R6Db5C/0cCWRN/sKVPQzMMPpJ/sI4cBmws4vtbqf75C/0WgR6Tf5CL0WgkuSHeJzX++xGNzEH3EF/yV9YQVyLKlMEiuTvR7dFoN/kL3RzOlBZ8kO8IQ+XGJRhvEN8gG8hXX9JiCJwCZ1vS29lXofbPpUtAqmSv1CmCFSa/IXzOgzIMIookj9Vb8n5xoAvs/jTnv8APpR4e8sVgdTJX1jN0kWgluSHmHlX1dRJo5kxR8zXyJH8hTHgM8R8/mK7TxCzVnNYqgjkSv7CYkWgtuQvXEE1HySjeZFzz79QCzgZ2EL0nsy95NzCIpA7+Qvzi0DtyQ9wEC62Ybw7qkz++Q4mzpmrUBSd+6km+QurgV8Qd0JqTf7C96n/A2cMTlRx2D8oWtTzc04wQAvcrmXf8y9jdKNI/jq7PymD/Tt8bwfwHuDYisaiwbQXuB04m1hjXiNkNT6HP+rhnn+I7Vfi35wDXJ97IOrJd4BNGV9/L/AH3POPtHFiKa6690TGvnEXtkVXRdaTf8Ugo3zMAEd0/I1JJXS6CDjfduL2xIczjkXlXQr8migGUiUmgAepf+836rGx/buQKncUzhCsM7YTXZGk2pyHawbUEbNE81WpViuAH1B/QoxaXE41TVelZa0kfT9BY+m4Cc/7NWAOxg69VcSDpFluS0puGqcK54xNxKPZ0sA6huo7sI5CPAkc2sXvQarN8VgEUsZT5F/9RkrqeCwCKeIx3POroY7BBUX7iYeBQ7p+16UBciRx/lp3MjUt7iBWYZIaby3xuGrdSdWEmAOuwUU3NGQmiBmDThteOnYSXXAGYhVYKbUx4EzgRepPtkGLrcBJ9NbYUmqUKZw6PD/uBNb184ZKTXMA0fl1hvoTsK54nTjkdykvjawp4DbqT8aq415cxksC4pHi0xmN24VbgfNxry+9ywRwAcP5QNEM0WS1qp52UmOtAi4murHWnbj9xhbiWoeP8EpdGgfOIJ6Bb9L8gbn2mM/EQ32pb2PElOINDPbpwRbgKuIZCJfrkjJYQUyYuZpIuLr39I8R6/MdhUmvhivTG3CQtIjn5E8iuhYfTd4Vc94AHm/Ho8BDwL+InnlS4zWtACzUIgrA0cDhwGHEs/TriKvvy52P7wJeascL7a/PE7cn/0ok+54M45YkSZIkSZIkSZIkSZIkSZIkSZIkSZIkSZIkSZIkSZIkSZIkSZIkSZIkSZIkSZIkSZIkSZIkSZIkSZIkSZIkSZIkSZIkSZIkSZIkSZIkSZIkSZIkSZIkSZIkSZIkSZIkSZIkSZIkSWqU/wMrxcxEssRLrgAAAABJRU5ErkJggg==;fillColor=#56517E;strokeColor=#EEEEEE;fontColor=#001933;labelBorderColor=none;" parent="_kdlp6c_PoI0e7NXFLLm-1" vertex="1">
          <mxGeometry x="10" y="40" width="16" height="17" as="geometry" />
        </mxCell>
        <mxCell id="_kdlp6c_PoI0e7NXFLLm-3" value="&lt;div&gt;&lt;span style=&quot;background-color: initial;&quot;&gt;Номер сертифікату&lt;/span&gt;&lt;/div&gt;&lt;div style=&quot;text-wrap: nowrap;&quot;&gt;&lt;span style=&quot;background-color: initial;&quot;&gt;ID учня&lt;/span&gt;&lt;/div&gt;&lt;div style=&quot;text-wrap: nowrap;&quot;&gt;&lt;span style=&quot;background-color: initial; text-wrap: wrap;&quot;&gt;PIN-код&lt;/span&gt;&lt;br&gt;&lt;/div&gt;&lt;div&gt;&lt;span style=&quot;background-color: initial;&quot;&gt;Дата створення&lt;/span&gt;&lt;/div&gt;&lt;div&gt;&lt;span style=&quot;text-wrap: nowrap;&quot;&gt;Термін дії&lt;br&gt;Статус&lt;/span&gt;&lt;/div&gt;" style="text;html=1;align=left;verticalAlign=middle;whiteSpace=wrap;rounded=0;labelBackgroundColor=none;fontColor=#001933;labelBorderColor=none;" parent="_kdlp6c_PoI0e7NXFLLm-1" vertex="1">
          <mxGeometry x="35" y="21" width="140" height="130" as="geometry" />
        </mxCell>
        <mxCell id="OuUDHexHPfsa80FZVVPV-1" value="" style="endArrow=none;html=1;rounded=0;exitX=0;exitY=0;exitDx=0;exitDy=0;entryX=0;entryY=1;entryDx=0;entryDy=0;" parent="1" source="sancW2MPpbxxTtlKX2UO-2" target="sancW2MPpbxxTtlKX2UO-2" edge="1">
          <mxGeometry width="50" height="50" relative="1" as="geometry">
            <mxPoint x="-270" y="340" as="sourcePoint" />
            <mxPoint x="-220" y="290" as="targetPoint" />
          </mxGeometry>
        </mxCell>
        <mxCell id="OuUDHexHPfsa80FZVVPV-2" value="" style="endArrow=none;html=1;rounded=0;exitX=0;exitY=1;exitDx=0;exitDy=0;entryX=1;entryY=1;entryDx=0;entryDy=0;" parent="1" source="sancW2MPpbxxTtlKX2UO-2" target="sancW2MPpbxxTtlKX2UO-2" edge="1">
          <mxGeometry width="50" height="50" relative="1" as="geometry">
            <mxPoint x="-100" y="370" as="sourcePoint" />
            <mxPoint x="-50" y="320" as="targetPoint" />
          </mxGeometry>
        </mxCell>
        <mxCell id="OuUDHexHPfsa80FZVVPV-3" value="" style="endArrow=none;html=1;rounded=0;exitX=1;exitY=0;exitDx=0;exitDy=0;entryX=1;entryY=1;entryDx=0;entryDy=0;" parent="1" source="sancW2MPpbxxTtlKX2UO-2" target="sancW2MPpbxxTtlKX2UO-2" edge="1">
          <mxGeometry width="50" height="50" relative="1" as="geometry">
            <mxPoint x="-160" y="350" as="sourcePoint" />
            <mxPoint x="-110" y="300" as="targetPoint" />
          </mxGeometry>
        </mxCell>
        <mxCell id="OuUDHexHPfsa80FZVVPV-5" value="" style="endArrow=none;html=1;rounded=0;exitX=0;exitY=1;exitDx=0;exitDy=0;entryX=1;entryY=1;entryDx=0;entryDy=0;" parent="1" source="2dNjcUOMYE_sHbrkTECG-23" target="2dNjcUOMYE_sHbrkTECG-23" edge="1">
          <mxGeometry width="50" height="50" relative="1" as="geometry">
            <mxPoint x="-720" y="510" as="sourcePoint" />
            <mxPoint x="-670" y="460" as="targetPoint" />
          </mxGeometry>
        </mxCell>
        <mxCell id="OuUDHexHPfsa80FZVVPV-6" value="" style="endArrow=none;html=1;rounded=0;exitX=0;exitY=0;exitDx=0;exitDy=0;" parent="1" source="2dNjcUOMYE_sHbrkTECG-23" edge="1">
          <mxGeometry width="50" height="50" relative="1" as="geometry">
            <mxPoint x="-791" y="560" as="sourcePoint" />
            <mxPoint x="-781" y="460" as="targetPoint" />
          </mxGeometry>
        </mxCell>
        <mxCell id="OuUDHexHPfsa80FZVVPV-7" value="" style="endArrow=none;html=1;rounded=0;entryX=1;entryY=0;entryDx=0;entryDy=0;" parent="1" target="2dNjcUOMYE_sHbrkTECG-23" edge="1">
          <mxGeometry width="50" height="50" relative="1" as="geometry">
            <mxPoint x="-571" y="460" as="sourcePoint" />
            <mxPoint x="-581" y="490" as="targetPoint" />
          </mxGeometry>
        </mxCell>
        <mxCell id="OuUDHexHPfsa80FZVVPV-8" value="" style="endArrow=none;html=1;rounded=0;entryX=0;entryY=0;entryDx=0;entryDy=0;exitX=0;exitY=1;exitDx=0;exitDy=0;" parent="1" source="2dNjcUOMYE_sHbrkTECG-1" target="2dNjcUOMYE_sHbrkTECG-1" edge="1">
          <mxGeometry width="50" height="50" relative="1" as="geometry">
            <mxPoint x="-830" y="300" as="sourcePoint" />
            <mxPoint x="-780" y="250" as="targetPoint" />
          </mxGeometry>
        </mxCell>
        <mxCell id="OuUDHexHPfsa80FZVVPV-9" value="" style="endArrow=none;html=1;rounded=0;entryX=1;entryY=0;entryDx=0;entryDy=0;exitX=1;exitY=1;exitDx=0;exitDy=0;" parent="1" source="2dNjcUOMYE_sHbrkTECG-1" target="2dNjcUOMYE_sHbrkTECG-1" edge="1">
          <mxGeometry width="50" height="50" relative="1" as="geometry">
            <mxPoint x="-590" y="230" as="sourcePoint" />
            <mxPoint x="-540" y="180" as="targetPoint" />
          </mxGeometry>
        </mxCell>
        <mxCell id="OuUDHexHPfsa80FZVVPV-10" value="" style="endArrow=none;html=1;rounded=0;entryX=0;entryY=1;entryDx=0;entryDy=0;exitX=1;exitY=1;exitDx=0;exitDy=0;" parent="1" source="2dNjcUOMYE_sHbrkTECG-1" target="2dNjcUOMYE_sHbrkTECG-1" edge="1">
          <mxGeometry width="50" height="50" relative="1" as="geometry">
            <mxPoint x="-590" y="240" as="sourcePoint" />
            <mxPoint x="-790" y="230" as="targetPoint" />
          </mxGeometry>
        </mxCell>
        <mxCell id="BJH8ZCXUyEgJt3sgaoFG-1" value="Відповідальний за &lt;br&gt;додавання учнів" style="shape=umlActor;verticalLabelPosition=bottom;verticalAlign=top;html=1;outlineConnect=0;" parent="1" vertex="1">
          <mxGeometry x="210" y="150" width="30" height="60" as="geometry" />
        </mxCell>
        <mxCell id="BJH8ZCXUyEgJt3sgaoFG-2" value="Відповідальний за фіксацію &lt;br&gt;проведення тесту" style="shape=umlActor;verticalLabelPosition=bottom;verticalAlign=top;html=1;outlineConnect=0;" parent="1" vertex="1">
          <mxGeometry x="370" y="50" width="30" height="60" as="geometry" />
        </mxCell>
        <mxCell id="BJH8ZCXUyEgJt3sgaoFG-3" value="Відповідальний за умови &lt;br&gt;та опис предметів" style="shape=umlActor;verticalLabelPosition=bottom;verticalAlign=top;html=1;outlineConnect=0;" parent="1" vertex="1">
          <mxGeometry x="210" y="50" width="30" height="60" as="geometry" />
        </mxCell>
        <mxCell id="BJH8ZCXUyEgJt3sgaoFG-7" value="Умови проходження" style="swimlane;whiteSpace=wrap;html=1;startSize=23;labelBackgroundColor=none;fillColor=#56517e;strokeColor=#36393d;fontColor=#ffffff;labelBorderColor=default;" parent="1" vertex="1">
          <mxGeometry x="-317" y="40" width="210" height="200" as="geometry" />
        </mxCell>
        <mxCell id="BJH8ZCXUyEgJt3sgaoFG-8" value="" style="shape=image;verticalLabelPosition=bottom;labelBackgroundColor=none;verticalAlign=top;aspect=fixed;imageAspect=0;image=data:image/png,iVBORw0KGgoAAAANSUhEUgAAAQAAAAEACAYAAABccqhmAAAACXBIWXMAAA7EAAAOxAGVKw4bAAAMBElEQVR4nO3df4hlZRnA8a/XYRlk2JZlGWQxWUxliMFEZLFAMxGx8A8zMbM0KxMrUgmLiEDERGLrDwmTEDKVkigzUTNbw/wZalupmda21qbrqqmjrrq7zM7aH889MDvO3Dn33vc95557vx94mGVn95537tznOb/e8z4gSZIkSZIkSZIkSZIkSZIkSZIkSZIkSZIkSZIkSZIkSZIkSZIkSZIkSZIkSZIkSZIkSZIkSZIkSZIkSZIkSZIkSZIkSZIkSZIkSZIkSZIkSZIkSZIkSZIkSZIkSZIkSZIkSZIkSVI5+9U9gATGgWngSOAw4BBgElgFrAQmgLEF/2cv8Cbwdvvry8CrwAvAv4FngKeB/7T/rTSUmlgAVgHHAx8B1gNHAAdk2tarwJ+Au4C7gb8DezJtS9IiWsChwMXARmAn8E5NsRW4DjiDKESSMlkFfB64F5ilvqRfKmaA64mjkRV53gJptLSIQ/priQSrO8nLxmbgMuDw9s8gqQsriD3pbQzm3r5s7CSOCqaxEEjLGgNOIA7z607elLEb+DlwFO++AyGNvBZx2+5Wmr3HXy5mgZuBqTRvm9R8k8DVxF6y7gStKl4Hvk3MS5BG0hhwGjHRpu6ErCueAE7G0wKNmLXATcAc9Sdh3TFLzCVY09c7KjVACziOuE1Wd+INWjxBzGSUhtI4MXtvB/Un26DGDHAeTiTSkFkF3Ej9CdaEmCNOCZxarKFwEHAP9SdW02Ijca1Eaqxp4ty27mRqajxKPM4sNc56YBv1J1HT40mikEqNYfKnja3ENGJp4B2NyZ8jthBPF0oD61Dig1p3sgxrbCIuqkoDZxJ4mPqTZNhjI7C65O9EqsQE8SRf3ckxKnET+dY91Ajbv4f/MwZcAZybdijqYBrYBTxAFASpNqcz3M/wD2q8BZxY4vcjZTMFvEj9yTCqsRk4eNnfkpTBBPAg9SfBqMcteD1AiXRzDeBrwOdyDUSlTRGdjB4hCoKU3TSxrFXdez8jYoZYU1HKbpy4F133h97YNzbiqYD6VKY34LnE8+oaPBcBP6x7EMpqLxkb1C5XAFYCf8FHVAfVq8B92LB0mL0MXAq8lOPFl1ud9nxM/kG2Gji17kEou3XAZ8lQBDodAUwSi3tMpt6opK79lgxFoFP/uq9i8kuD4mRinc2kObnUEcAq4CngwJQbk9S33wFnk+hIYKkjgLMw+aVBdBJxJJCkscxiMwHHgR+n2oCk5N5HrBa1kWhJ37PFjgBOwG620qA7FbiWPheLWVgAWjjfX2qK0+izCCy8CDhJdO91iqnUHL8CvkhMDOvKwiOA0zH5pabp+Uhg/kzAFvDpVCOSVKnTiGcGvgC8UfY/zT8FmASexU61UpPdQEziK1UE5h8BnEi1yb+HeNDhVWKwE+1Y0/4qqXvntL+WKgLzC8BHswxnX28CzwB3A/cC/wT+C7xNFJ81xMNH69vjmcYJSVK3ziFO6b9CF0cC28m3eMUO4DZiFlPZvXsLeD+wgTg1qXsBDsNoWlxHyYv605kGMEc8UXgq/Z1eTBHTH3dnGqdhDGtcQ4kicEGGDc8RK9im6m03DlwIvJJhrIYxzHENkT9L+mniDc61X3NVp432oAWcQSyKWfebahhNig10WADoyYQbmiNvQ8sWcZFjR8IxG8awxxzwLRZM/tu//RffY/nlwcraBnwCeD7R6y30DlGwVgIfpNzCptKo2w84lujstWn+N9aRrsrsBs7L/ZO0TWKnIsPoNnYQT/wCsfdfRzp/A36W8PU6eYnoUryrou1Jw2CCeG5gLUQBSHWuvge4mpjUU5X7iJbZkso7BLgSogCkulL/GnB7otcq601iskO2xgnSkDoTmG6Rbt79A2RqXrCMR4hnCiSVtwI4odOy4N3YC9yf6LW69Rxx7UFSl1osM0OopD3Ul4S7gKdr2rbUVHuBh1IWgBcSvE6vtte4bamJfgn8OeUpwGuJXqsXXgOQynuEeFR4b4u4kp5CiiOJXrmOoVTO08CnaO80W6RpLd0ipubW5b01bltqiueATxKL8gCRuCnuoa+gvjbiLdqzmiQt6WVi0d/H5/9lqlOAMeADCV6nF2uIBU0kLe41orX4fQu/0SLdXPqT6NxuPJfDgUNr2K7UBG8QTUN+s9g3W/TQTWQJU8QaflVqAR/HpcylxbwJXETc8ltUygJwAFFpqnQ4MadZ0r52Ecl/Q6d/1CLdPfQWcBaRlFUYA76EFwClhXYBXwd+QomL/OPALOkWHLiZdKsLdXIK8HrCcRvGMMRu4BK6vB63NfEALuxm4z2YAp5KOGbDGIaYBb5JDzvgexIPZIboNJzDgcBdicdrGE2PWeByerwg/qMMA/of6S/QrSVOMeYyjNfIF8VK0RtIe7q5XLxCfA6r/Fk3EzvUKj+js8TyeD1Pxz8/08BmiPORFHP1jyT6CZr8zYo54ojtQOIDejnVFIFtxHWiU9p/ruJn3QwcQyxYW9WOqu/kBzgq4wB3A3cCx9HbRKGVRIFKeZ3CqCbmJ3+hiiKwDfgY8Xlrtf+cuwgUyV9YQ/4iUBz29/0g3grgrcxv0AzR3+80YiXiTsXgAKJD8CXAH7EnYBNjseQv5CwC85O/kLsILEz+Qs4ikGTPP9/vMwxyqYE/297ejcBVxIfhu8RyxbcCj2H7ryZHp+Qv5CgCiyV/IVcRWCr5CzmKQPLkB/hGwgEaoxtlkr+Qsgh0Sv5CUQS2J/pZl0v+QsoikOywf6FcLcKN0Ylukr+QogiUSf5CqiJQNvkLa4hu2f0UgWzJDzF5YHMfgzNGO4rkn6R7/RSBbpK/0G8R6Db5C/0cCWRN/sKVPQzMMPpJ/sI4cBmws4vtbqf75C/0WgR6Tf5CL0WgkuSHeJzX++xGNzEH3EF/yV9YQVyLKlMEiuTvR7dFoN/kL3RzOlBZ8kO8IQ+XGJRhvEN8gG8hXX9JiCJwCZ1vS29lXofbPpUtAqmSv1CmCFSa/IXzOgzIMIookj9Vb8n5xoAvs/jTnv8APpR4e8sVgdTJX1jN0kWgluSHmHlX1dRJo5kxR8zXyJH8hTHgM8R8/mK7TxCzVnNYqgjkSv7CYkWgtuQvXEE1HySjeZFzz79QCzgZ2EL0nsy95NzCIpA7+Qvzi0DtyQ9wEC62Ybw7qkz++Q4mzpmrUBSd+6km+QurgV8Qd0JqTf7C96n/A2cMTlRx2D8oWtTzc04wQAvcrmXf8y9jdKNI/jq7PymD/Tt8bwfwHuDYisaiwbQXuB04m1hjXiNkNT6HP+rhnn+I7Vfi35wDXJ97IOrJd4BNGV9/L/AH3POPtHFiKa6690TGvnEXtkVXRdaTf8Ugo3zMAEd0/I1JJXS6CDjfduL2xIczjkXlXQr8migGUiUmgAepf+836rGx/buQKncUzhCsM7YTXZGk2pyHawbUEbNE81WpViuAH1B/QoxaXE41TVelZa0kfT9BY+m4Cc/7NWAOxg69VcSDpFluS0puGqcK54xNxKPZ0sA6huo7sI5CPAkc2sXvQarN8VgEUsZT5F/9RkrqeCwCKeIx3POroY7BBUX7iYeBQ7p+16UBciRx/lp3MjUt7iBWYZIaby3xuGrdSdWEmAOuwUU3NGQmiBmDThteOnYSXXAGYhVYKbUx4EzgRepPtkGLrcBJ9NbYUmqUKZw6PD/uBNb184ZKTXMA0fl1hvoTsK54nTjkdykvjawp4DbqT8aq415cxksC4pHi0xmN24VbgfNxry+9ywRwAcP5QNEM0WS1qp52UmOtAi4murHWnbj9xhbiWoeP8EpdGgfOIJ6Bb9L8gbn2mM/EQ32pb2PElOINDPbpwRbgKuIZCJfrkjJYQUyYuZpIuLr39I8R6/MdhUmvhivTG3CQtIjn5E8iuhYfTd4Vc94AHm/Ho8BDwL+InnlS4zWtACzUIgrA0cDhwGHEs/TriKvvy52P7wJeascL7a/PE7cn/0ok+54M45YkSZIkSZIkSZIkSZIkSZIkSZIkSZIkSZIkSZIkSZIkSZIkSZIkSZIkSZIkSZIkSZIkSZIkSZIkSZIkSZIkSZIkSZIkSZIkSZIkSZIkSZIkSZIkSZIkSZIkSZIkSZIkSZIkSZIkSWqU/wMrxcxEssRLrgAAAABJRU5ErkJggg==;fillColor=#56517E;strokeColor=#EEEEEE;fontColor=#001933;labelBorderColor=none;" parent="BJH8ZCXUyEgJt3sgaoFG-7" vertex="1">
          <mxGeometry x="10" y="40" width="16" height="17" as="geometry" />
        </mxCell>
        <mxCell id="BJH8ZCXUyEgJt3sgaoFG-9" value="&lt;div&gt;ID умови&lt;/div&gt;&lt;div&gt;&lt;div&gt;Код предмету&lt;/div&gt;&lt;/div&gt;&lt;div&gt;&lt;div&gt;&lt;div&gt;&lt;span style=&quot;background-color: initial;&quot;&gt;Максимальний бал&lt;/span&gt;&lt;br&gt;&lt;/div&gt;&lt;div&gt;Мінімальний бал для проходження&lt;br&gt;&lt;/div&gt;&lt;/div&gt;&lt;div&gt;Мінімальний бал&lt;/div&gt;&lt;div&gt;Статус(обов`язковий чи ні)&lt;/div&gt;&lt;/div&gt;&lt;div&gt;Дата умов&lt;/div&gt;" style="text;html=1;align=left;verticalAlign=middle;whiteSpace=wrap;rounded=0;labelBackgroundColor=none;fontColor=#001933;labelBorderColor=none;" parent="BJH8ZCXUyEgJt3sgaoFG-7" vertex="1">
          <mxGeometry x="35" y="40" width="140" height="130" as="geometry" />
        </mxCell>
        <mxCell id="zV94RDiSU-stFDnle8mO-1" value="Користувач" style="swimlane;whiteSpace=wrap;html=1;startSize=23;labelBackgroundColor=none;fillColor=#56517e;strokeColor=#36393d;fontColor=#ffffff;labelBorderColor=default;" parent="1" vertex="1">
          <mxGeometry x="-310" y="260" width="210" height="200" as="geometry" />
        </mxCell>
        <mxCell id="zV94RDiSU-stFDnle8mO-2" value="" style="shape=image;verticalLabelPosition=bottom;labelBackgroundColor=none;verticalAlign=top;aspect=fixed;imageAspect=0;image=data:image/png,iVBORw0KGgoAAAANSUhEUgAAAQAAAAEACAYAAABccqhmAAAACXBIWXMAAA7EAAAOxAGVKw4bAAAMBElEQVR4nO3df4hlZRnA8a/XYRlk2JZlGWQxWUxliMFEZLFAMxGx8A8zMbM0KxMrUgmLiEDERGLrDwmTEDKVkigzUTNbw/wZalupmda21qbrqqmjrrq7zM7aH889MDvO3Dn33vc95557vx94mGVn95537tznOb/e8z4gSZIkSZIkSZIkSZIkSZIkSZIkSZIkSZIkSZIkSZIkSZIkSZIkSZIkSZIkSZIkSZIkSZIkSZIkSZIkSZIkSZIkSZIkSZIkSZIkSZIkSZIkSZIkSZIkSZIkSZIkSZIkSZIkSZIkSVI5+9U9gATGgWngSOAw4BBgElgFrAQmgLEF/2cv8Cbwdvvry8CrwAvAv4FngKeB/7T/rTSUmlgAVgHHAx8B1gNHAAdk2tarwJ+Au4C7gb8DezJtS9IiWsChwMXARmAn8E5NsRW4DjiDKESSMlkFfB64F5ilvqRfKmaA64mjkRV53gJptLSIQ/priQSrO8nLxmbgMuDw9s8gqQsriD3pbQzm3r5s7CSOCqaxEEjLGgNOIA7z607elLEb+DlwFO++AyGNvBZx2+5Wmr3HXy5mgZuBqTRvm9R8k8DVxF6y7gStKl4Hvk3MS5BG0hhwGjHRpu6ErCueAE7G0wKNmLXATcAc9Sdh3TFLzCVY09c7KjVACziOuE1Wd+INWjxBzGSUhtI4MXtvB/Un26DGDHAeTiTSkFkF3Ej9CdaEmCNOCZxarKFwEHAP9SdW02Ijca1Eaqxp4ty27mRqajxKPM4sNc56YBv1J1HT40mikEqNYfKnja3ENGJp4B2NyZ8jthBPF0oD61Dig1p3sgxrbCIuqkoDZxJ4mPqTZNhjI7C65O9EqsQE8SRf3ckxKnET+dY91Ajbv4f/MwZcAZybdijqYBrYBTxAFASpNqcz3M/wD2q8BZxY4vcjZTMFvEj9yTCqsRk4eNnfkpTBBPAg9SfBqMcteD1AiXRzDeBrwOdyDUSlTRGdjB4hCoKU3TSxrFXdez8jYoZYU1HKbpy4F133h97YNzbiqYD6VKY34LnE8+oaPBcBP6x7EMpqLxkb1C5XAFYCf8FHVAfVq8B92LB0mL0MXAq8lOPFl1ud9nxM/kG2Gji17kEou3XAZ8lQBDodAUwSi3tMpt6opK79lgxFoFP/uq9i8kuD4mRinc2kObnUEcAq4CngwJQbk9S33wFnk+hIYKkjgLMw+aVBdBJxJJCkscxiMwHHgR+n2oCk5N5HrBa1kWhJ37PFjgBOwG620qA7FbiWPheLWVgAWjjfX2qK0+izCCy8CDhJdO91iqnUHL8CvkhMDOvKwiOA0zH5pabp+Uhg/kzAFvDpVCOSVKnTiGcGvgC8UfY/zT8FmASexU61UpPdQEziK1UE5h8BnEi1yb+HeNDhVWKwE+1Y0/4qqXvntL+WKgLzC8BHswxnX28CzwB3A/cC/wT+C7xNFJ81xMNH69vjmcYJSVK3ziFO6b9CF0cC28m3eMUO4DZiFlPZvXsLeD+wgTg1qXsBDsNoWlxHyYv605kGMEc8UXgq/Z1eTBHTH3dnGqdhDGtcQ4kicEGGDc8RK9im6m03DlwIvJJhrIYxzHENkT9L+mniDc61X3NVp432oAWcQSyKWfebahhNig10WADoyYQbmiNvQ8sWcZFjR8IxG8awxxzwLRZM/tu//RffY/nlwcraBnwCeD7R6y30DlGwVgIfpNzCptKo2w84lujstWn+N9aRrsrsBs7L/ZO0TWKnIsPoNnYQT/wCsfdfRzp/A36W8PU6eYnoUryrou1Jw2CCeG5gLUQBSHWuvge4mpjUU5X7iJbZkso7BLgSogCkulL/GnB7otcq601iskO2xgnSkDoTmG6Rbt79A2RqXrCMR4hnCiSVtwI4odOy4N3YC9yf6LW69Rxx7UFSl1osM0OopD3Ul4S7gKdr2rbUVHuBh1IWgBcSvE6vtte4bamJfgn8OeUpwGuJXqsXXgOQynuEeFR4b4u4kp5CiiOJXrmOoVTO08CnaO80W6RpLd0ipubW5b01bltqiueATxKL8gCRuCnuoa+gvjbiLdqzmiQt6WVi0d/H5/9lqlOAMeADCV6nF2uIBU0kLe41orX4fQu/0SLdXPqT6NxuPJfDgUNr2K7UBG8QTUN+s9g3W/TQTWQJU8QaflVqAR/HpcylxbwJXETc8ltUygJwAFFpqnQ4MadZ0r52Ecl/Q6d/1CLdPfQWcBaRlFUYA76EFwClhXYBXwd+QomL/OPALOkWHLiZdKsLdXIK8HrCcRvGMMRu4BK6vB63NfEALuxm4z2YAp5KOGbDGIaYBb5JDzvgexIPZIboNJzDgcBdicdrGE2PWeByerwg/qMMA/of6S/QrSVOMeYyjNfIF8VK0RtIe7q5XLxCfA6r/Fk3EzvUKj+js8TyeD1Pxz8/08BmiPORFHP1jyT6CZr8zYo54ojtQOIDejnVFIFtxHWiU9p/ruJn3QwcQyxYW9WOqu/kBzgq4wB3A3cCx9HbRKGVRIFKeZ3CqCbmJ3+hiiKwDfgY8Xlrtf+cuwgUyV9YQ/4iUBz29/0g3grgrcxv0AzR3+80YiXiTsXgAKJD8CXAH7EnYBNjseQv5CwC85O/kLsILEz+Qs4ikGTPP9/vMwxyqYE/297ejcBVxIfhu8RyxbcCj2H7ryZHp+Qv5CgCiyV/IVcRWCr5CzmKQPLkB/hGwgEaoxtlkr+Qsgh0Sv5CUQS2J/pZl0v+QsoikOywf6FcLcKN0Ylukr+QogiUSf5CqiJQNvkLa4hu2f0UgWzJDzF5YHMfgzNGO4rkn6R7/RSBbpK/0G8R6Db5C/0cCWRN/sKVPQzMMPpJ/sI4cBmws4vtbqf75C/0WgR6Tf5CL0WgkuSHeJzX++xGNzEH3EF/yV9YQVyLKlMEiuTvR7dFoN/kL3RzOlBZ8kO8IQ+XGJRhvEN8gG8hXX9JiCJwCZ1vS29lXofbPpUtAqmSv1CmCFSa/IXzOgzIMIookj9Vb8n5xoAvs/jTnv8APpR4e8sVgdTJX1jN0kWgluSHmHlX1dRJo5kxR8zXyJH8hTHgM8R8/mK7TxCzVnNYqgjkSv7CYkWgtuQvXEE1HySjeZFzz79QCzgZ2EL0nsy95NzCIpA7+Qvzi0DtyQ9wEC62Ybw7qkz++Q4mzpmrUBSd+6km+QurgV8Qd0JqTf7C96n/A2cMTlRx2D8oWtTzc04wQAvcrmXf8y9jdKNI/jq7PymD/Tt8bwfwHuDYisaiwbQXuB04m1hjXiNkNT6HP+rhnn+I7Vfi35wDXJ97IOrJd4BNGV9/L/AH3POPtHFiKa6690TGvnEXtkVXRdaTf8Ugo3zMAEd0/I1JJXS6CDjfduL2xIczjkXlXQr8migGUiUmgAepf+836rGx/buQKncUzhCsM7YTXZGk2pyHawbUEbNE81WpViuAH1B/QoxaXE41TVelZa0kfT9BY+m4Cc/7NWAOxg69VcSDpFluS0puGqcK54xNxKPZ0sA6huo7sI5CPAkc2sXvQarN8VgEUsZT5F/9RkrqeCwCKeIx3POroY7BBUX7iYeBQ7p+16UBciRx/lp3MjUt7iBWYZIaby3xuGrdSdWEmAOuwUU3NGQmiBmDThteOnYSXXAGYhVYKbUx4EzgRepPtkGLrcBJ9NbYUmqUKZw6PD/uBNb184ZKTXMA0fl1hvoTsK54nTjkdykvjawp4DbqT8aq415cxksC4pHi0xmN24VbgfNxry+9ywRwAcP5QNEM0WS1qp52UmOtAi4murHWnbj9xhbiWoeP8EpdGgfOIJ6Bb9L8gbn2mM/EQ32pb2PElOINDPbpwRbgKuIZCJfrkjJYQUyYuZpIuLr39I8R6/MdhUmvhivTG3CQtIjn5E8iuhYfTd4Vc94AHm/Ho8BDwL+InnlS4zWtACzUIgrA0cDhwGHEs/TriKvvy52P7wJeascL7a/PE7cn/0ok+54M45YkSZIkSZIkSZIkSZIkSZIkSZIkSZIkSZIkSZIkSZIkSZIkSZIkSZIkSZIkSZIkSZIkSZIkSZIkSZIkSZIkSZIkSZIkSZIkSZIkSZIkSZIkSZIkSZIkSZIkSZIkSZIkSZIkSZIkSWqU/wMrxcxEssRLrgAAAABJRU5ErkJggg==;fillColor=#56517E;strokeColor=#EEEEEE;fontColor=#001933;labelBorderColor=none;" parent="zV94RDiSU-stFDnle8mO-1" vertex="1">
          <mxGeometry x="10" y="40" width="16" height="17" as="geometry" />
        </mxCell>
        <mxCell id="zV94RDiSU-stFDnle8mO-3" value="&lt;div&gt;&lt;span style=&quot;background-color: initial;&quot;&gt;Логін користувача&lt;/span&gt;&lt;/div&gt;&lt;div&gt;&lt;span style=&quot;text-wrap: nowrap;&quot;&gt;Пароль&lt;/span&gt;&lt;/div&gt;&lt;div&gt;&lt;span style=&quot;text-wrap: nowrap;&quot;&gt;Роль користувача&lt;/span&gt;&lt;/div&gt;" style="text;html=1;align=left;verticalAlign=middle;whiteSpace=wrap;rounded=0;labelBackgroundColor=none;fontColor=#001933;labelBorderColor=none;" parent="zV94RDiSU-stFDnle8mO-1" vertex="1">
          <mxGeometry x="32" y="-2" width="140" height="130" as="geometry" />
        </mxCell>
      </root>
    </mxGraphModel>
  </diagram>
  <diagram id="7eN7ZB57NF-9PFiHqbqk" name="ER">
    <mxGraphModel dx="1707" dy="542" grid="1" gridSize="10" guides="1" tooltips="1" connect="1" arrows="1" fold="1" page="1" pageScale="1" pageWidth="827" pageHeight="1169" math="0" shadow="0">
      <root>
        <mxCell id="0" />
        <mxCell id="1" parent="0" />
        <mxCell id="2sBwvjIQapzKRAw834ev-1" value="Student" style="swimlane;whiteSpace=wrap;html=1;startSize=23;" parent="1" vertex="1">
          <mxGeometry x="10" y="20" width="210" height="200" as="geometry" />
        </mxCell>
        <mxCell id="2sBwvjIQapzKRAw834ev-2" value="&lt;div&gt;Student_id&lt;br&gt;&lt;/div&gt;&lt;div&gt;&lt;span style=&quot;background-color: initial;&quot;&gt;Pasport_num&lt;/span&gt;&lt;/div&gt;&lt;div&gt;&lt;span style=&quot;background-color: initial;&quot;&gt;Pasport_type&lt;/span&gt;&lt;/div&gt;&lt;div&gt;&lt;span style=&quot;background-color: initial;&quot;&gt;PIb&lt;/span&gt;&lt;br&gt;&lt;/div&gt;&lt;div&gt;&lt;span style=&quot;background-color: initial;&quot;&gt;Birth_date&lt;/span&gt;&lt;/div&gt;&lt;div&gt;&lt;span style=&quot;background-color: initial;&quot;&gt;Gender&lt;/span&gt;&lt;br&gt;&lt;/div&gt;&lt;div&gt;E-mail&lt;/div&gt;&lt;div&gt;&lt;span style=&quot;background-color: initial;&quot;&gt;Phone_num&lt;/span&gt;&lt;/div&gt;&lt;div&gt;&lt;span style=&quot;background-color: initial;&quot;&gt;EduCerf_num&lt;/span&gt;&lt;/div&gt;&lt;div&gt;&lt;span style=&quot;background-color: initial;&quot;&gt;PN&lt;/span&gt;&lt;br&gt;&lt;/div&gt;&lt;div&gt;&lt;span style=&quot;background-color: initial;&quot;&gt;Additional&lt;/span&gt;&lt;/div&gt;" style="text;html=1;align=left;verticalAlign=middle;resizable=0;points=[];autosize=1;strokeColor=none;fillColor=none;" parent="2sBwvjIQapzKRAw834ev-1" vertex="1">
          <mxGeometry x="28" y="30" width="100" height="170" as="geometry" />
        </mxCell>
        <mxCell id="2sBwvjIQapzKRAw834ev-3" value="" style="shape=image;verticalLabelPosition=bottom;labelBackgroundColor=default;verticalAlign=top;aspect=fixed;imageAspect=0;image=data:image/png,iVBORw0KGgoAAAANSUhEUgAAAQAAAAEACAYAAABccqhmAAAACXBIWXMAAA7EAAAOxAGVKw4bAAAMBElEQVR4nO3df4hlZRnA8a/XYRlk2JZlGWQxWUxliMFEZLFAMxGx8A8zMbM0KxMrUgmLiEDERGLrDwmTEDKVkigzUTNbw/wZalupmda21qbrqqmjrrq7zM7aH889MDvO3Dn33vc95557vx94mGVn95537tznOb/e8z4gSZIkSZIkSZIkSZIkSZIkSZIkSZIkSZIkSZIkSZIkSZIkSZIkSZIkSZIkSZIkSZIkSZIkSZIkSZIkSZIkSZIkSZIkSZIkSZIkSZIkSZIkSZIkSZIkSZIkSZIkSZIkSZIkSZIkSVI5+9U9gATGgWngSOAw4BBgElgFrAQmgLEF/2cv8Cbwdvvry8CrwAvAv4FngKeB/7T/rTSUmlgAVgHHAx8B1gNHAAdk2tarwJ+Au4C7gb8DezJtS9IiWsChwMXARmAn8E5NsRW4DjiDKESSMlkFfB64F5ilvqRfKmaA64mjkRV53gJptLSIQ/priQSrO8nLxmbgMuDw9s8gqQsriD3pbQzm3r5s7CSOCqaxEEjLGgNOIA7z607elLEb+DlwFO++AyGNvBZx2+5Wmr3HXy5mgZuBqTRvm9R8k8DVxF6y7gStKl4Hvk3MS5BG0hhwGjHRpu6ErCueAE7G0wKNmLXATcAc9Sdh3TFLzCVY09c7KjVACziOuE1Wd+INWjxBzGSUhtI4MXtvB/Un26DGDHAeTiTSkFkF3Ej9CdaEmCNOCZxarKFwEHAP9SdW02Ijca1Eaqxp4ty27mRqajxKPM4sNc56YBv1J1HT40mikEqNYfKnja3ENGJp4B2NyZ8jthBPF0oD61Dig1p3sgxrbCIuqkoDZxJ4mPqTZNhjI7C65O9EqsQE8SRf3ckxKnET+dY91Ajbv4f/MwZcAZybdijqYBrYBTxAFASpNqcz3M/wD2q8BZxY4vcjZTMFvEj9yTCqsRk4eNnfkpTBBPAg9SfBqMcteD1AiXRzDeBrwOdyDUSlTRGdjB4hCoKU3TSxrFXdez8jYoZYU1HKbpy4F133h97YNzbiqYD6VKY34LnE8+oaPBcBP6x7EMpqLxkb1C5XAFYCf8FHVAfVq8B92LB0mL0MXAq8lOPFl1ud9nxM/kG2Gji17kEou3XAZ8lQBDodAUwSi3tMpt6opK79lgxFoFP/uq9i8kuD4mRinc2kObnUEcAq4CngwJQbk9S33wFnk+hIYKkjgLMw+aVBdBJxJJCkscxiMwHHgR+n2oCk5N5HrBa1kWhJ37PFjgBOwG620qA7FbiWPheLWVgAWjjfX2qK0+izCCy8CDhJdO91iqnUHL8CvkhMDOvKwiOA0zH5pabp+Uhg/kzAFvDpVCOSVKnTiGcGvgC8UfY/zT8FmASexU61UpPdQEziK1UE5h8BnEi1yb+HeNDhVWKwE+1Y0/4qqXvntL+WKgLzC8BHswxnX28CzwB3A/cC/wT+C7xNFJ81xMNH69vjmcYJSVK3ziFO6b9CF0cC28m3eMUO4DZiFlPZvXsLeD+wgTg1qXsBDsNoWlxHyYv605kGMEc8UXgq/Z1eTBHTH3dnGqdhDGtcQ4kicEGGDc8RK9im6m03DlwIvJJhrIYxzHENkT9L+mniDc61X3NVp432oAWcQSyKWfebahhNig10WADoyYQbmiNvQ8sWcZFjR8IxG8awxxzwLRZM/tu//RffY/nlwcraBnwCeD7R6y30DlGwVgIfpNzCptKo2w84lujstWn+N9aRrsrsBs7L/ZO0TWKnIsPoNnYQT/wCsfdfRzp/A36W8PU6eYnoUryrou1Jw2CCeG5gLUQBSHWuvge4mpjUU5X7iJbZkso7BLgSogCkulL/GnB7otcq601iskO2xgnSkDoTmG6Rbt79A2RqXrCMR4hnCiSVtwI4odOy4N3YC9yf6LW69Rxx7UFSl1osM0OopD3Ul4S7gKdr2rbUVHuBh1IWgBcSvE6vtte4bamJfgn8OeUpwGuJXqsXXgOQynuEeFR4b4u4kp5CiiOJXrmOoVTO08CnaO80W6RpLd0ipubW5b01bltqiueATxKL8gCRuCnuoa+gvjbiLdqzmiQt6WVi0d/H5/9lqlOAMeADCV6nF2uIBU0kLe41orX4fQu/0SLdXPqT6NxuPJfDgUNr2K7UBG8QTUN+s9g3W/TQTWQJU8QaflVqAR/HpcylxbwJXETc8ltUygJwAFFpqnQ4MadZ0r52Ecl/Q6d/1CLdPfQWcBaRlFUYA76EFwClhXYBXwd+QomL/OPALOkWHLiZdKsLdXIK8HrCcRvGMMRu4BK6vB63NfEALuxm4z2YAp5KOGbDGIaYBb5JDzvgexIPZIboNJzDgcBdicdrGE2PWeByerwg/qMMA/of6S/QrSVOMeYyjNfIF8VK0RtIe7q5XLxCfA6r/Fk3EzvUKj+js8TyeD1Pxz8/08BmiPORFHP1jyT6CZr8zYo54ojtQOIDejnVFIFtxHWiU9p/ruJn3QwcQyxYW9WOqu/kBzgq4wB3A3cCx9HbRKGVRIFKeZ3CqCbmJ3+hiiKwDfgY8Xlrtf+cuwgUyV9YQ/4iUBz29/0g3grgrcxv0AzR3+80YiXiTsXgAKJD8CXAH7EnYBNjseQv5CwC85O/kLsILEz+Qs4ikGTPP9/vMwxyqYE/297ejcBVxIfhu8RyxbcCj2H7ryZHp+Qv5CgCiyV/IVcRWCr5CzmKQPLkB/hGwgEaoxtlkr+Qsgh0Sv5CUQS2J/pZl0v+QsoikOywf6FcLcKN0Ylukr+QogiUSf5CqiJQNvkLa4hu2f0UgWzJDzF5YHMfgzNGO4rkn6R7/RSBbpK/0G8R6Db5C/0cCWRN/sKVPQzMMPpJ/sI4cBmws4vtbqf75C/0WgR6Tf5CL0WgkuSHeJzX++xGNzEH3EF/yV9YQVyLKlMEiuTvR7dFoN/kL3RzOlBZ8kO8IQ+XGJRhvEN8gG8hXX9JiCJwCZ1vS29lXofbPpUtAqmSv1CmCFSa/IXzOgzIMIookj9Vb8n5xoAvs/jTnv8APpR4e8sVgdTJX1jN0kWgluSHmHlX1dRJo5kxR8zXyJH8hTHgM8R8/mK7TxCzVnNYqgjkSv7CYkWgtuQvXEE1HySjeZFzz79QCzgZ2EL0nsy95NzCIpA7+Qvzi0DtyQ9wEC62Ybw7qkz++Q4mzpmrUBSd+6km+QurgV8Qd0JqTf7C96n/A2cMTlRx2D8oWtTzc04wQAvcrmXf8y9jdKNI/jq7PymD/Tt8bwfwHuDYisaiwbQXuB04m1hjXiNkNT6HP+rhnn+I7Vfi35wDXJ97IOrJd4BNGV9/L/AH3POPtHFiKa6690TGvnEXtkVXRdaTf8Ugo3zMAEd0/I1JJXS6CDjfduL2xIczjkXlXQr8migGUiUmgAepf+836rGx/buQKncUzhCsM7YTXZGk2pyHawbUEbNE81WpViuAH1B/QoxaXE41TVelZa0kfT9BY+m4Cc/7NWAOxg69VcSDpFluS0puGqcK54xNxKPZ0sA6huo7sI5CPAkc2sXvQarN8VgEUsZT5F/9RkrqeCwCKeIx3POroY7BBUX7iYeBQ7p+16UBciRx/lp3MjUt7iBWYZIaby3xuGrdSdWEmAOuwUU3NGQmiBmDThteOnYSXXAGYhVYKbUx4EzgRepPtkGLrcBJ9NbYUmqUKZw6PD/uBNb184ZKTXMA0fl1hvoTsK54nTjkdykvjawp4DbqT8aq415cxksC4pHi0xmN24VbgfNxry+9ywRwAcP5QNEM0WS1qp52UmOtAi4murHWnbj9xhbiWoeP8EpdGgfOIJ6Bb9L8gbn2mM/EQ32pb2PElOINDPbpwRbgKuIZCJfrkjJYQUyYuZpIuLr39I8R6/MdhUmvhivTG3CQtIjn5E8iuhYfTd4Vc94AHm/Ho8BDwL+InnlS4zWtACzUIgrA0cDhwGHEs/TriKvvy52P7wJeascL7a/PE7cn/0ok+54M45YkSZIkSZIkSZIkSZIkSZIkSZIkSZIkSZIkSZIkSZIkSZIkSZIkSZIkSZIkSZIkSZIkSZIkSZIkSZIkSZIkSZIkSZIkSZIkSZIkSZIkSZIkSZIkSZIkSZIkSZIkSZIkSZIkSZIkSWqU/wMrxcxEssRLrgAAAABJRU5ErkJggg==;" parent="2sBwvjIQapzKRAw834ev-1" vertex="1">
          <mxGeometry x="7" y="33" width="16" height="17" as="geometry" />
        </mxCell>
        <mxCell id="2sBwvjIQapzKRAw834ev-7" value="Result" style="swimlane;whiteSpace=wrap;html=1;startSize=23;" parent="1" vertex="1">
          <mxGeometry x="-260" y="20" width="210" height="200" as="geometry" />
        </mxCell>
        <mxCell id="2sBwvjIQapzKRAw834ev-8" value="" style="shape=image;verticalLabelPosition=bottom;labelBackgroundColor=default;verticalAlign=top;aspect=fixed;imageAspect=0;image=data:image/png,iVBORw0KGgoAAAANSUhEUgAAAQAAAAEACAYAAABccqhmAAAACXBIWXMAAA7EAAAOxAGVKw4bAAAMBElEQVR4nO3df4hlZRnA8a/XYRlk2JZlGWQxWUxliMFEZLFAMxGx8A8zMbM0KxMrUgmLiEDERGLrDwmTEDKVkigzUTNbw/wZalupmda21qbrqqmjrrq7zM7aH889MDvO3Dn33vc95557vx94mGVn95537tznOb/e8z4gSZIkSZIkSZIkSZIkSZIkSZIkSZIkSZIkSZIkSZIkSZIkSZIkSZIkSZIkSZIkSZIkSZIkSZIkSZIkSZIkSZIkSZIkSZIkSZIkSZIkSZIkSZIkSZIkSZIkSZIkSZIkSZIkSZIkSVI5+9U9gATGgWngSOAw4BBgElgFrAQmgLEF/2cv8Cbwdvvry8CrwAvAv4FngKeB/7T/rTSUmlgAVgHHAx8B1gNHAAdk2tarwJ+Au4C7gb8DezJtS9IiWsChwMXARmAn8E5NsRW4DjiDKESSMlkFfB64F5ilvqRfKmaA64mjkRV53gJptLSIQ/priQSrO8nLxmbgMuDw9s8gqQsriD3pbQzm3r5s7CSOCqaxEEjLGgNOIA7z607elLEb+DlwFO++AyGNvBZx2+5Wmr3HXy5mgZuBqTRvm9R8k8DVxF6y7gStKl4Hvk3MS5BG0hhwGjHRpu6ErCueAE7G0wKNmLXATcAc9Sdh3TFLzCVY09c7KjVACziOuE1Wd+INWjxBzGSUhtI4MXtvB/Un26DGDHAeTiTSkFkF3Ej9CdaEmCNOCZxarKFwEHAP9SdW02Ijca1Eaqxp4ty27mRqajxKPM4sNc56YBv1J1HT40mikEqNYfKnja3ENGJp4B2NyZ8jthBPF0oD61Dig1p3sgxrbCIuqkoDZxJ4mPqTZNhjI7C65O9EqsQE8SRf3ckxKnET+dY91Ajbv4f/MwZcAZybdijqYBrYBTxAFASpNqcz3M/wD2q8BZxY4vcjZTMFvEj9yTCqsRk4eNnfkpTBBPAg9SfBqMcteD1AiXRzDeBrwOdyDUSlTRGdjB4hCoKU3TSxrFXdez8jYoZYU1HKbpy4F133h97YNzbiqYD6VKY34LnE8+oaPBcBP6x7EMpqLxkb1C5XAFYCf8FHVAfVq8B92LB0mL0MXAq8lOPFl1ud9nxM/kG2Gji17kEou3XAZ8lQBDodAUwSi3tMpt6opK79lgxFoFP/uq9i8kuD4mRinc2kObnUEcAq4CngwJQbk9S33wFnk+hIYKkjgLMw+aVBdBJxJJCkscxiMwHHgR+n2oCk5N5HrBa1kWhJ37PFjgBOwG620qA7FbiWPheLWVgAWjjfX2qK0+izCCy8CDhJdO91iqnUHL8CvkhMDOvKwiOA0zH5pabp+Uhg/kzAFvDpVCOSVKnTiGcGvgC8UfY/zT8FmASexU61UpPdQEziK1UE5h8BnEi1yb+HeNDhVWKwE+1Y0/4qqXvntL+WKgLzC8BHswxnX28CzwB3A/cC/wT+C7xNFJ81xMNH69vjmcYJSVK3ziFO6b9CF0cC28m3eMUO4DZiFlPZvXsLeD+wgTg1qXsBDsNoWlxHyYv605kGMEc8UXgq/Z1eTBHTH3dnGqdhDGtcQ4kicEGGDc8RK9im6m03DlwIvJJhrIYxzHENkT9L+mniDc61X3NVp432oAWcQSyKWfebahhNig10WADoyYQbmiNvQ8sWcZFjR8IxG8awxxzwLRZM/tu//RffY/nlwcraBnwCeD7R6y30DlGwVgIfpNzCptKo2w84lujstWn+N9aRrsrsBs7L/ZO0TWKnIsPoNnYQT/wCsfdfRzp/A36W8PU6eYnoUryrou1Jw2CCeG5gLUQBSHWuvge4mpjUU5X7iJbZkso7BLgSogCkulL/GnB7otcq601iskO2xgnSkDoTmG6Rbt79A2RqXrCMR4hnCiSVtwI4odOy4N3YC9yf6LW69Rxx7UFSl1osM0OopD3Ul4S7gKdr2rbUVHuBh1IWgBcSvE6vtte4bamJfgn8OeUpwGuJXqsXXgOQynuEeFR4b4u4kp5CiiOJXrmOoVTO08CnaO80W6RpLd0ipubW5b01bltqiueATxKL8gCRuCnuoa+gvjbiLdqzmiQt6WVi0d/H5/9lqlOAMeADCV6nF2uIBU0kLe41orX4fQu/0SLdXPqT6NxuPJfDgUNr2K7UBG8QTUN+s9g3W/TQTWQJU8QaflVqAR/HpcylxbwJXETc8ltUygJwAFFpqnQ4MadZ0r52Ecl/Q6d/1CLdPfQWcBaRlFUYA76EFwClhXYBXwd+QomL/OPALOkWHLiZdKsLdXIK8HrCcRvGMMRu4BK6vB63NfEALuxm4z2YAp5KOGbDGIaYBb5JDzvgexIPZIboNJzDgcBdicdrGE2PWeByerwg/qMMA/of6S/QrSVOMeYyjNfIF8VK0RtIe7q5XLxCfA6r/Fk3EzvUKj+js8TyeD1Pxz8/08BmiPORFHP1jyT6CZr8zYo54ojtQOIDejnVFIFtxHWiU9p/ruJn3QwcQyxYW9WOqu/kBzgq4wB3A3cCx9HbRKGVRIFKeZ3CqCbmJ3+hiiKwDfgY8Xlrtf+cuwgUyV9YQ/4iUBz29/0g3grgrcxv0AzR3+80YiXiTsXgAKJD8CXAH7EnYBNjseQv5CwC85O/kLsILEz+Qs4ikGTPP9/vMwxyqYE/297ejcBVxIfhu8RyxbcCj2H7ryZHp+Qv5CgCiyV/IVcRWCr5CzmKQPLkB/hGwgEaoxtlkr+Qsgh0Sv5CUQS2J/pZl0v+QsoikOywf6FcLcKN0Ylukr+QogiUSf5CqiJQNvkLa4hu2f0UgWzJDzF5YHMfgzNGO4rkn6R7/RSBbpK/0G8R6Db5C/0cCWRN/sKVPQzMMPpJ/sI4cBmws4vtbqf75C/0WgR6Tf5CL0WgkuSHeJzX++xGNzEH3EF/yV9YQVyLKlMEiuTvR7dFoN/kL3RzOlBZ8kO8IQ+XGJRhvEN8gG8hXX9JiCJwCZ1vS29lXofbPpUtAqmSv1CmCFSa/IXzOgzIMIookj9Vb8n5xoAvs/jTnv8APpR4e8sVgdTJX1jN0kWgluSHmHlX1dRJo5kxR8zXyJH8hTHgM8R8/mK7TxCzVnNYqgjkSv7CYkWgtuQvXEE1HySjeZFzz79QCzgZ2EL0nsy95NzCIpA7+Qvzi0DtyQ9wEC62Ybw7qkz++Q4mzpmrUBSd+6km+QurgV8Qd0JqTf7C96n/A2cMTlRx2D8oWtTzc04wQAvcrmXf8y9jdKNI/jq7PymD/Tt8bwfwHuDYisaiwbQXuB04m1hjXiNkNT6HP+rhnn+I7Vfi35wDXJ97IOrJd4BNGV9/L/AH3POPtHFiKa6690TGvnEXtkVXRdaTf8Ugo3zMAEd0/I1JJXS6CDjfduL2xIczjkXlXQr8migGUiUmgAepf+836rGx/buQKncUzhCsM7YTXZGk2pyHawbUEbNE81WpViuAH1B/QoxaXE41TVelZa0kfT9BY+m4Cc/7NWAOxg69VcSDpFluS0puGqcK54xNxKPZ0sA6huo7sI5CPAkc2sXvQarN8VgEUsZT5F/9RkrqeCwCKeIx3POroY7BBUX7iYeBQ7p+16UBciRx/lp3MjUt7iBWYZIaby3xuGrdSdWEmAOuwUU3NGQmiBmDThteOnYSXXAGYhVYKbUx4EzgRepPtkGLrcBJ9NbYUmqUKZw6PD/uBNb184ZKTXMA0fl1hvoTsK54nTjkdykvjawp4DbqT8aq415cxksC4pHi0xmN24VbgfNxry+9ywRwAcP5QNEM0WS1qp52UmOtAi4murHWnbj9xhbiWoeP8EpdGgfOIJ6Bb9L8gbn2mM/EQ32pb2PElOINDPbpwRbgKuIZCJfrkjJYQUyYuZpIuLr39I8R6/MdhUmvhivTG3CQtIjn5E8iuhYfTd4Vc94AHm/Ho8BDwL+InnlS4zWtACzUIgrA0cDhwGHEs/TriKvvy52P7wJeascL7a/PE7cn/0ok+54M45YkSZIkSZIkSZIkSZIkSZIkSZIkSZIkSZIkSZIkSZIkSZIkSZIkSZIkSZIkSZIkSZIkSZIkSZIkSZIkSZIkSZIkSZIkSZIkSZIkSZIkSZIkSZIkSZIkSZIkSZIkSZIkSZIkSZIkSWqU/wMrxcxEssRLrgAAAABJRU5ErkJggg==;" parent="2sBwvjIQapzKRAw834ev-7" vertex="1">
          <mxGeometry x="10" y="40" width="16" height="17" as="geometry" />
        </mxCell>
        <mxCell id="2sBwvjIQapzKRAw834ev-9" value="&lt;div&gt;&lt;span style=&quot;background-color: initial;&quot;&gt;Res_id&lt;/span&gt;&lt;/div&gt;&lt;div&gt;&lt;span style=&quot;background-color: initial;&quot;&gt;Subj_id&lt;/span&gt;&lt;br&gt;&lt;/div&gt;&lt;div&gt;&lt;div&gt;&lt;span style=&quot;background-color: initial;&quot;&gt;Condition_id&lt;/span&gt;&lt;/div&gt;&lt;/div&gt;&lt;div style=&quot;text-wrap: nowrap;&quot;&gt;Student_id&lt;br&gt;&lt;/div&gt;&lt;div&gt;&lt;span style=&quot;background-color: initial;&quot;&gt;Reached_score&lt;/span&gt;&lt;br&gt;&lt;/div&gt;&lt;div&gt;&lt;span style=&quot;background-color: initial;&quot;&gt;Status&lt;/span&gt;&lt;/div&gt;&lt;div&gt;&lt;span style=&quot;background-color: initial; text-wrap: nowrap;&quot;&gt;School_id&lt;/span&gt;&lt;br&gt;&lt;/div&gt;&lt;div&gt;&lt;div style=&quot;text-wrap: nowrap;&quot;&gt;Attemp_date&lt;/div&gt;&lt;/div&gt;" style="text;html=1;align=left;verticalAlign=middle;whiteSpace=wrap;rounded=0;" parent="2sBwvjIQapzKRAw834ev-7" vertex="1">
          <mxGeometry x="32" y="35" width="140" height="130" as="geometry" />
        </mxCell>
        <mxCell id="2sBwvjIQapzKRAw834ev-10" value="School" style="swimlane;whiteSpace=wrap;html=1;startSize=23;" parent="1" vertex="1">
          <mxGeometry x="20" y="250" width="210" height="200" as="geometry" />
        </mxCell>
        <mxCell id="2sBwvjIQapzKRAw834ev-11" value="&lt;div&gt;&lt;span style=&quot;background-color: initial;&quot;&gt;School_id&lt;/span&gt;&lt;/div&gt;&lt;div&gt;&lt;span style=&quot;background-color: initial;&quot;&gt;City&lt;/span&gt;&lt;br&gt;&lt;/div&gt;&lt;div&gt;Region&lt;/div&gt;&lt;div&gt;Type&lt;/div&gt;&lt;div&gt;E-mail&lt;/div&gt;&lt;div&gt;Teacher_PIB&lt;/div&gt;" style="text;html=1;align=left;verticalAlign=middle;resizable=0;points=[];autosize=1;strokeColor=none;fillColor=none;" parent="2sBwvjIQapzKRAw834ev-10" vertex="1">
          <mxGeometry x="27" y="28" width="90" height="100" as="geometry" />
        </mxCell>
        <mxCell id="2sBwvjIQapzKRAw834ev-12" value="" style="shape=image;verticalLabelPosition=bottom;labelBackgroundColor=default;verticalAlign=top;aspect=fixed;imageAspect=0;image=data:image/png,iVBORw0KGgoAAAANSUhEUgAAAQAAAAEACAYAAABccqhmAAAACXBIWXMAAA7EAAAOxAGVKw4bAAAMBElEQVR4nO3df4hlZRnA8a/XYRlk2JZlGWQxWUxliMFEZLFAMxGx8A8zMbM0KxMrUgmLiEDERGLrDwmTEDKVkigzUTNbw/wZalupmda21qbrqqmjrrq7zM7aH889MDvO3Dn33vc95557vx94mGVn95537tznOb/e8z4gSZIkSZIkSZIkSZIkSZIkSZIkSZIkSZIkSZIkSZIkSZIkSZIkSZIkSZIkSZIkSZIkSZIkSZIkSZIkSZIkSZIkSZIkSZIkSZIkSZIkSZIkSZIkSZIkSZIkSZIkSZIkSZIkSZIkSVI5+9U9gATGgWngSOAw4BBgElgFrAQmgLEF/2cv8Cbwdvvry8CrwAvAv4FngKeB/7T/rTSUmlgAVgHHAx8B1gNHAAdk2tarwJ+Au4C7gb8DezJtS9IiWsChwMXARmAn8E5NsRW4DjiDKESSMlkFfB64F5ilvqRfKmaA64mjkRV53gJptLSIQ/priQSrO8nLxmbgMuDw9s8gqQsriD3pbQzm3r5s7CSOCqaxEEjLGgNOIA7z607elLEb+DlwFO++AyGNvBZx2+5Wmr3HXy5mgZuBqTRvm9R8k8DVxF6y7gStKl4Hvk3MS5BG0hhwGjHRpu6ErCueAE7G0wKNmLXATcAc9Sdh3TFLzCVY09c7KjVACziOuE1Wd+INWjxBzGSUhtI4MXtvB/Un26DGDHAeTiTSkFkF3Ej9CdaEmCNOCZxarKFwEHAP9SdW02Ijca1Eaqxp4ty27mRqajxKPM4sNc56YBv1J1HT40mikEqNYfKnja3ENGJp4B2NyZ8jthBPF0oD61Dig1p3sgxrbCIuqkoDZxJ4mPqTZNhjI7C65O9EqsQE8SRf3ckxKnET+dY91Ajbv4f/MwZcAZybdijqYBrYBTxAFASpNqcz3M/wD2q8BZxY4vcjZTMFvEj9yTCqsRk4eNnfkpTBBPAg9SfBqMcteD1AiXRzDeBrwOdyDUSlTRGdjB4hCoKU3TSxrFXdez8jYoZYU1HKbpy4F133h97YNzbiqYD6VKY34LnE8+oaPBcBP6x7EMpqLxkb1C5XAFYCf8FHVAfVq8B92LB0mL0MXAq8lOPFl1ud9nxM/kG2Gji17kEou3XAZ8lQBDodAUwSi3tMpt6opK79lgxFoFP/uq9i8kuD4mRinc2kObnUEcAq4CngwJQbk9S33wFnk+hIYKkjgLMw+aVBdBJxJJCkscxiMwHHgR+n2oCk5N5HrBa1kWhJ37PFjgBOwG620qA7FbiWPheLWVgAWjjfX2qK0+izCCy8CDhJdO91iqnUHL8CvkhMDOvKwiOA0zH5pabp+Uhg/kzAFvDpVCOSVKnTiGcGvgC8UfY/zT8FmASexU61UpPdQEziK1UE5h8BnEi1yb+HeNDhVWKwE+1Y0/4qqXvntL+WKgLzC8BHswxnX28CzwB3A/cC/wT+C7xNFJ81xMNH69vjmcYJSVK3ziFO6b9CF0cC28m3eMUO4DZiFlPZvXsLeD+wgTg1qXsBDsNoWlxHyYv605kGMEc8UXgq/Z1eTBHTH3dnGqdhDGtcQ4kicEGGDc8RK9im6m03DlwIvJJhrIYxzHENkT9L+mniDc61X3NVp432oAWcQSyKWfebahhNig10WADoyYQbmiNvQ8sWcZFjR8IxG8awxxzwLRZM/tu//RffY/nlwcraBnwCeD7R6y30DlGwVgIfpNzCptKo2w84lujstWn+N9aRrsrsBs7L/ZO0TWKnIsPoNnYQT/wCsfdfRzp/A36W8PU6eYnoUryrou1Jw2CCeG5gLUQBSHWuvge4mpjUU5X7iJbZkso7BLgSogCkulL/GnB7otcq601iskO2xgnSkDoTmG6Rbt79A2RqXrCMR4hnCiSVtwI4odOy4N3YC9yf6LW69Rxx7UFSl1osM0OopD3Ul4S7gKdr2rbUVHuBh1IWgBcSvE6vtte4bamJfgn8OeUpwGuJXqsXXgOQynuEeFR4b4u4kp5CiiOJXrmOoVTO08CnaO80W6RpLd0ipubW5b01bltqiueATxKL8gCRuCnuoa+gvjbiLdqzmiQt6WVi0d/H5/9lqlOAMeADCV6nF2uIBU0kLe41orX4fQu/0SLdXPqT6NxuPJfDgUNr2K7UBG8QTUN+s9g3W/TQTWQJU8QaflVqAR/HpcylxbwJXETc8ltUygJwAFFpqnQ4MadZ0r52Ecl/Q6d/1CLdPfQWcBaRlFUYA76EFwClhXYBXwd+QomL/OPALOkWHLiZdKsLdXIK8HrCcRvGMMRu4BK6vB63NfEALuxm4z2YAp5KOGbDGIaYBb5JDzvgexIPZIboNJzDgcBdicdrGE2PWeByerwg/qMMA/of6S/QrSVOMeYyjNfIF8VK0RtIe7q5XLxCfA6r/Fk3EzvUKj+js8TyeD1Pxz8/08BmiPORFHP1jyT6CZr8zYo54ojtQOIDejnVFIFtxHWiU9p/ruJn3QwcQyxYW9WOqu/kBzgq4wB3A3cCx9HbRKGVRIFKeZ3CqCbmJ3+hiiKwDfgY8Xlrtf+cuwgUyV9YQ/4iUBz29/0g3grgrcxv0AzR3+80YiXiTsXgAKJD8CXAH7EnYBNjseQv5CwC85O/kLsILEz+Qs4ikGTPP9/vMwxyqYE/297ejcBVxIfhu8RyxbcCj2H7ryZHp+Qv5CgCiyV/IVcRWCr5CzmKQPLkB/hGwgEaoxtlkr+Qsgh0Sv5CUQS2J/pZl0v+QsoikOywf6FcLcKN0Ylukr+QogiUSf5CqiJQNvkLa4hu2f0UgWzJDzF5YHMfgzNGO4rkn6R7/RSBbpK/0G8R6Db5C/0cCWRN/sKVPQzMMPpJ/sI4cBmws4vtbqf75C/0WgR6Tf5CL0WgkuSHeJzX++xGNzEH3EF/yV9YQVyLKlMEiuTvR7dFoN/kL3RzOlBZ8kO8IQ+XGJRhvEN8gG8hXX9JiCJwCZ1vS29lXofbPpUtAqmSv1CmCFSa/IXzOgzIMIookj9Vb8n5xoAvs/jTnv8APpR4e8sVgdTJX1jN0kWgluSHmHlX1dRJo5kxR8zXyJH8hTHgM8R8/mK7TxCzVnNYqgjkSv7CYkWgtuQvXEE1HySjeZFzz79QCzgZ2EL0nsy95NzCIpA7+Qvzi0DtyQ9wEC62Ybw7qkz++Q4mzpmrUBSd+6km+QurgV8Qd0JqTf7C96n/A2cMTlRx2D8oWtTzc04wQAvcrmXf8y9jdKNI/jq7PymD/Tt8bwfwHuDYisaiwbQXuB04m1hjXiNkNT6HP+rhnn+I7Vfi35wDXJ97IOrJd4BNGV9/L/AH3POPtHFiKa6690TGvnEXtkVXRdaTf8Ugo3zMAEd0/I1JJXS6CDjfduL2xIczjkXlXQr8migGUiUmgAepf+836rGx/buQKncUzhCsM7YTXZGk2pyHawbUEbNE81WpViuAH1B/QoxaXE41TVelZa0kfT9BY+m4Cc/7NWAOxg69VcSDpFluS0puGqcK54xNxKPZ0sA6huo7sI5CPAkc2sXvQarN8VgEUsZT5F/9RkrqeCwCKeIx3POroY7BBUX7iYeBQ7p+16UBciRx/lp3MjUt7iBWYZIaby3xuGrdSdWEmAOuwUU3NGQmiBmDThteOnYSXXAGYhVYKbUx4EzgRepPtkGLrcBJ9NbYUmqUKZw6PD/uBNb184ZKTXMA0fl1hvoTsK54nTjkdykvjawp4DbqT8aq415cxksC4pHi0xmN24VbgfNxry+9ywRwAcP5QNEM0WS1qp52UmOtAi4murHWnbj9xhbiWoeP8EpdGgfOIJ6Bb9L8gbn2mM/EQ32pb2PElOINDPbpwRbgKuIZCJfrkjJYQUyYuZpIuLr39I8R6/MdhUmvhivTG3CQtIjn5E8iuhYfTd4Vc94AHm/Ho8BDwL+InnlS4zWtACzUIgrA0cDhwGHEs/TriKvvy52P7wJeascL7a/PE7cn/0ok+54M45YkSZIkSZIkSZIkSZIkSZIkSZIkSZIkSZIkSZIkSZIkSZIkSZIkSZIkSZIkSZIkSZIkSZIkSZIkSZIkSZIkSZIkSZIkSZIkSZIkSZIkSZIkSZIkSZIkSZIkSZIkSZIkSZIkSZIkSWqU/wMrxcxEssRLrgAAAABJRU5ErkJggg==;" parent="2sBwvjIQapzKRAw834ev-10" vertex="1">
          <mxGeometry x="7" y="33" width="16" height="17" as="geometry" />
        </mxCell>
        <mxCell id="2sBwvjIQapzKRAw834ev-13" value="Subject" style="swimlane;whiteSpace=wrap;html=1;" parent="1" vertex="1">
          <mxGeometry x="-518" y="20" width="210" height="200" as="geometry" />
        </mxCell>
        <mxCell id="2sBwvjIQapzKRAw834ev-14" value="" style="shape=image;verticalLabelPosition=bottom;labelBackgroundColor=default;verticalAlign=top;aspect=fixed;imageAspect=0;image=data:image/png,iVBORw0KGgoAAAANSUhEUgAAAQAAAAEACAYAAABccqhmAAAACXBIWXMAAA7EAAAOxAGVKw4bAAAMBElEQVR4nO3df4hlZRnA8a/XYRlk2JZlGWQxWUxliMFEZLFAMxGx8A8zMbM0KxMrUgmLiEDERGLrDwmTEDKVkigzUTNbw/wZalupmda21qbrqqmjrrq7zM7aH889MDvO3Dn33vc95557vx94mGVn95537tznOb/e8z4gSZIkSZIkSZIkSZIkSZIkSZIkSZIkSZIkSZIkSZIkSZIkSZIkSZIkSZIkSZIkSZIkSZIkSZIkSZIkSZIkSZIkSZIkSZIkSZIkSZIkSZIkSZIkSZIkSZIkSZIkSZIkSZIkSZIkSVI5+9U9gATGgWngSOAw4BBgElgFrAQmgLEF/2cv8Cbwdvvry8CrwAvAv4FngKeB/7T/rTSUmlgAVgHHAx8B1gNHAAdk2tarwJ+Au4C7gb8DezJtS9IiWsChwMXARmAn8E5NsRW4DjiDKESSMlkFfB64F5ilvqRfKmaA64mjkRV53gJptLSIQ/priQSrO8nLxmbgMuDw9s8gqQsriD3pbQzm3r5s7CSOCqaxEEjLGgNOIA7z607elLEb+DlwFO++AyGNvBZx2+5Wmr3HXy5mgZuBqTRvm9R8k8DVxF6y7gStKl4Hvk3MS5BG0hhwGjHRpu6ErCueAE7G0wKNmLXATcAc9Sdh3TFLzCVY09c7KjVACziOuE1Wd+INWjxBzGSUhtI4MXtvB/Un26DGDHAeTiTSkFkF3Ej9CdaEmCNOCZxarKFwEHAP9SdW02Ijca1Eaqxp4ty27mRqajxKPM4sNc56YBv1J1HT40mikEqNYfKnja3ENGJp4B2NyZ8jthBPF0oD61Dig1p3sgxrbCIuqkoDZxJ4mPqTZNhjI7C65O9EqsQE8SRf3ckxKnET+dY91Ajbv4f/MwZcAZybdijqYBrYBTxAFASpNqcz3M/wD2q8BZxY4vcjZTMFvEj9yTCqsRk4eNnfkpTBBPAg9SfBqMcteD1AiXRzDeBrwOdyDUSlTRGdjB4hCoKU3TSxrFXdez8jYoZYU1HKbpy4F133h97YNzbiqYD6VKY34LnE8+oaPBcBP6x7EMpqLxkb1C5XAFYCf8FHVAfVq8B92LB0mL0MXAq8lOPFl1ud9nxM/kG2Gji17kEou3XAZ8lQBDodAUwSi3tMpt6opK79lgxFoFP/uq9i8kuD4mRinc2kObnUEcAq4CngwJQbk9S33wFnk+hIYKkjgLMw+aVBdBJxJJCkscxiMwHHgR+n2oCk5N5HrBa1kWhJ37PFjgBOwG620qA7FbiWPheLWVgAWjjfX2qK0+izCCy8CDhJdO91iqnUHL8CvkhMDOvKwiOA0zH5pabp+Uhg/kzAFvDpVCOSVKnTiGcGvgC8UfY/zT8FmASexU61UpPdQEziK1UE5h8BnEi1yb+HeNDhVWKwE+1Y0/4qqXvntL+WKgLzC8BHswxnX28CzwB3A/cC/wT+C7xNFJ81xMNH69vjmcYJSVK3ziFO6b9CF0cC28m3eMUO4DZiFlPZvXsLeD+wgTg1qXsBDsNoWlxHyYv605kGMEc8UXgq/Z1eTBHTH3dnGqdhDGtcQ4kicEGGDc8RK9im6m03DlwIvJJhrIYxzHENkT9L+mniDc61X3NVp432oAWcQSyKWfebahhNig10WADoyYQbmiNvQ8sWcZFjR8IxG8awxxzwLRZM/tu//RffY/nlwcraBnwCeD7R6y30DlGwVgIfpNzCptKo2w84lujstWn+N9aRrsrsBs7L/ZO0TWKnIsPoNnYQT/wCsfdfRzp/A36W8PU6eYnoUryrou1Jw2CCeG5gLUQBSHWuvge4mpjUU5X7iJbZkso7BLgSogCkulL/GnB7otcq601iskO2xgnSkDoTmG6Rbt79A2RqXrCMR4hnCiSVtwI4odOy4N3YC9yf6LW69Rxx7UFSl1osM0OopD3Ul4S7gKdr2rbUVHuBh1IWgBcSvE6vtte4bamJfgn8OeUpwGuJXqsXXgOQynuEeFR4b4u4kp5CiiOJXrmOoVTO08CnaO80W6RpLd0ipubW5b01bltqiueATxKL8gCRuCnuoa+gvjbiLdqzmiQt6WVi0d/H5/9lqlOAMeADCV6nF2uIBU0kLe41orX4fQu/0SLdXPqT6NxuPJfDgUNr2K7UBG8QTUN+s9g3W/TQTWQJU8QaflVqAR/HpcylxbwJXETc8ltUygJwAFFpqnQ4MadZ0r52Ecl/Q6d/1CLdPfQWcBaRlFUYA76EFwClhXYBXwd+QomL/OPALOkWHLiZdKsLdXIK8HrCcRvGMMRu4BK6vB63NfEALuxm4z2YAp5KOGbDGIaYBb5JDzvgexIPZIboNJzDgcBdicdrGE2PWeByerwg/qMMA/of6S/QrSVOMeYyjNfIF8VK0RtIe7q5XLxCfA6r/Fk3EzvUKj+js8TyeD1Pxz8/08BmiPORFHP1jyT6CZr8zYo54ojtQOIDejnVFIFtxHWiU9p/ruJn3QwcQyxYW9WOqu/kBzgq4wB3A3cCx9HbRKGVRIFKeZ3CqCbmJ3+hiiKwDfgY8Xlrtf+cuwgUyV9YQ/4iUBz29/0g3grgrcxv0AzR3+80YiXiTsXgAKJD8CXAH7EnYBNjseQv5CwC85O/kLsILEz+Qs4ikGTPP9/vMwxyqYE/297ejcBVxIfhu8RyxbcCj2H7ryZHp+Qv5CgCiyV/IVcRWCr5CzmKQPLkB/hGwgEaoxtlkr+Qsgh0Sv5CUQS2J/pZl0v+QsoikOywf6FcLcKN0Ylukr+QogiUSf5CqiJQNvkLa4hu2f0UgWzJDzF5YHMfgzNGO4rkn6R7/RSBbpK/0G8R6Db5C/0cCWRN/sKVPQzMMPpJ/sI4cBmws4vtbqf75C/0WgR6Tf5CL0WgkuSHeJzX++xGNzEH3EF/yV9YQVyLKlMEiuTvR7dFoN/kL3RzOlBZ8kO8IQ+XGJRhvEN8gG8hXX9JiCJwCZ1vS29lXofbPpUtAqmSv1CmCFSa/IXzOgzIMIookj9Vb8n5xoAvs/jTnv8APpR4e8sVgdTJX1jN0kWgluSHmHlX1dRJo5kxR8zXyJH8hTHgM8R8/mK7TxCzVnNYqgjkSv7CYkWgtuQvXEE1HySjeZFzz79QCzgZ2EL0nsy95NzCIpA7+Qvzi0DtyQ9wEC62Ybw7qkz++Q4mzpmrUBSd+6km+QurgV8Qd0JqTf7C96n/A2cMTlRx2D8oWtTzc04wQAvcrmXf8y9jdKNI/jq7PymD/Tt8bwfwHuDYisaiwbQXuB04m1hjXiNkNT6HP+rhnn+I7Vfi35wDXJ97IOrJd4BNGV9/L/AH3POPtHFiKa6690TGvnEXtkVXRdaTf8Ugo3zMAEd0/I1JJXS6CDjfduL2xIczjkXlXQr8migGUiUmgAepf+836rGx/buQKncUzhCsM7YTXZGk2pyHawbUEbNE81WpViuAH1B/QoxaXE41TVelZa0kfT9BY+m4Cc/7NWAOxg69VcSDpFluS0puGqcK54xNxKPZ0sA6huo7sI5CPAkc2sXvQarN8VgEUsZT5F/9RkrqeCwCKeIx3POroY7BBUX7iYeBQ7p+16UBciRx/lp3MjUt7iBWYZIaby3xuGrdSdWEmAOuwUU3NGQmiBmDThteOnYSXXAGYhVYKbUx4EzgRepPtkGLrcBJ9NbYUmqUKZw6PD/uBNb184ZKTXMA0fl1hvoTsK54nTjkdykvjawp4DbqT8aq415cxksC4pHi0xmN24VbgfNxry+9ywRwAcP5QNEM0WS1qp52UmOtAi4murHWnbj9xhbiWoeP8EpdGgfOIJ6Bb9L8gbn2mM/EQ32pb2PElOINDPbpwRbgKuIZCJfrkjJYQUyYuZpIuLr39I8R6/MdhUmvhivTG3CQtIjn5E8iuhYfTd4Vc94AHm/Ho8BDwL+InnlS4zWtACzUIgrA0cDhwGHEs/TriKvvy52P7wJeascL7a/PE7cn/0ok+54M45YkSZIkSZIkSZIkSZIkSZIkSZIkSZIkSZIkSZIkSZIkSZIkSZIkSZIkSZIkSZIkSZIkSZIkSZIkSZIkSZIkSZIkSZIkSZIkSZIkSZIkSZIkSZIkSZIkSZIkSZIkSZIkSZIkSZIkSWqU/wMrxcxEssRLrgAAAABJRU5ErkJggg==;" parent="2sBwvjIQapzKRAw834ev-13" vertex="1">
          <mxGeometry x="7" y="33" width="16" height="17" as="geometry" />
        </mxCell>
        <mxCell id="2sBwvjIQapzKRAw834ev-15" value="&lt;div&gt;&lt;span style=&quot;background-color: initial;&quot;&gt;Subject_id&lt;/span&gt;&lt;/div&gt;&lt;div&gt;&lt;span style=&quot;text-wrap: nowrap; background-color: initial;&quot;&gt;Name&lt;/span&gt;&lt;/div&gt;&lt;div&gt;&lt;span style=&quot;text-wrap: nowrap; background-color: initial;&quot;&gt;Description&lt;/span&gt;&lt;br&gt;&lt;/div&gt;&lt;div&gt;&lt;div&gt;Test_sample&lt;/div&gt;&lt;/div&gt;&lt;div&gt;Image_name&lt;/div&gt;" style="text;html=1;align=left;verticalAlign=middle;whiteSpace=wrap;rounded=0;" parent="2sBwvjIQapzKRAw834ev-13" vertex="1">
          <mxGeometry x="30" width="127" height="139" as="geometry" />
        </mxCell>
        <mxCell id="6Gk7Tn9jsqV94GsvEMMv-3" value="" style="endArrow=classic;html=1;rounded=0;" parent="2sBwvjIQapzKRAw834ev-13" edge="1">
          <mxGeometry width="50" height="50" relative="1" as="geometry">
            <mxPoint x="209" y="40" as="sourcePoint" />
            <mxPoint x="259" y="63" as="targetPoint" />
            <Array as="points">
              <mxPoint x="229" y="40" />
              <mxPoint x="229" y="63" />
            </Array>
          </mxGeometry>
        </mxCell>
        <mxCell id="irDOypoDd4D7YIuotiXx-1" value="Certificate" style="swimlane;whiteSpace=wrap;html=1;startSize=23;" parent="1" vertex="1">
          <mxGeometry x="270" y="20" width="210" height="200" as="geometry" />
        </mxCell>
        <mxCell id="irDOypoDd4D7YIuotiXx-2" value="" style="shape=image;verticalLabelPosition=bottom;labelBackgroundColor=default;verticalAlign=top;aspect=fixed;imageAspect=0;image=data:image/png,iVBORw0KGgoAAAANSUhEUgAAAQAAAAEACAYAAABccqhmAAAACXBIWXMAAA7EAAAOxAGVKw4bAAAMBElEQVR4nO3df4hlZRnA8a/XYRlk2JZlGWQxWUxliMFEZLFAMxGx8A8zMbM0KxMrUgmLiEDERGLrDwmTEDKVkigzUTNbw/wZalupmda21qbrqqmjrrq7zM7aH889MDvO3Dn33vc95557vx94mGVn95537tznOb/e8z4gSZIkSZIkSZIkSZIkSZIkSZIkSZIkSZIkSZIkSZIkSZIkSZIkSZIkSZIkSZIkSZIkSZIkSZIkSZIkSZIkSZIkSZIkSZIkSZIkSZIkSZIkSZIkSZIkSZIkSZIkSZIkSZIkSZIkSVI5+9U9gATGgWngSOAw4BBgElgFrAQmgLEF/2cv8Cbwdvvry8CrwAvAv4FngKeB/7T/rTSUmlgAVgHHAx8B1gNHAAdk2tarwJ+Au4C7gb8DezJtS9IiWsChwMXARmAn8E5NsRW4DjiDKESSMlkFfB64F5ilvqRfKmaA64mjkRV53gJptLSIQ/priQSrO8nLxmbgMuDw9s8gqQsriD3pbQzm3r5s7CSOCqaxEEjLGgNOIA7z607elLEb+DlwFO++AyGNvBZx2+5Wmr3HXy5mgZuBqTRvm9R8k8DVxF6y7gStKl4Hvk3MS5BG0hhwGjHRpu6ErCueAE7G0wKNmLXATcAc9Sdh3TFLzCVY09c7KjVACziOuE1Wd+INWjxBzGSUhtI4MXtvB/Un26DGDHAeTiTSkFkF3Ej9CdaEmCNOCZxarKFwEHAP9SdW02Ijca1Eaqxp4ty27mRqajxKPM4sNc56YBv1J1HT40mikEqNYfKnja3ENGJp4B2NyZ8jthBPF0oD61Dig1p3sgxrbCIuqkoDZxJ4mPqTZNhjI7C65O9EqsQE8SRf3ckxKnET+dY91Ajbv4f/MwZcAZybdijqYBrYBTxAFASpNqcz3M/wD2q8BZxY4vcjZTMFvEj9yTCqsRk4eNnfkpTBBPAg9SfBqMcteD1AiXRzDeBrwOdyDUSlTRGdjB4hCoKU3TSxrFXdez8jYoZYU1HKbpy4F133h97YNzbiqYD6VKY34LnE8+oaPBcBP6x7EMpqLxkb1C5XAFYCf8FHVAfVq8B92LB0mL0MXAq8lOPFl1ud9nxM/kG2Gji17kEou3XAZ8lQBDodAUwSi3tMpt6opK79lgxFoFP/uq9i8kuD4mRinc2kObnUEcAq4CngwJQbk9S33wFnk+hIYKkjgLMw+aVBdBJxJJCkscxiMwHHgR+n2oCk5N5HrBa1kWhJ37PFjgBOwG620qA7FbiWPheLWVgAWjjfX2qK0+izCCy8CDhJdO91iqnUHL8CvkhMDOvKwiOA0zH5pabp+Uhg/kzAFvDpVCOSVKnTiGcGvgC8UfY/zT8FmASexU61UpPdQEziK1UE5h8BnEi1yb+HeNDhVWKwE+1Y0/4qqXvntL+WKgLzC8BHswxnX28CzwB3A/cC/wT+C7xNFJ81xMNH69vjmcYJSVK3ziFO6b9CF0cC28m3eMUO4DZiFlPZvXsLeD+wgTg1qXsBDsNoWlxHyYv605kGMEc8UXgq/Z1eTBHTH3dnGqdhDGtcQ4kicEGGDc8RK9im6m03DlwIvJJhrIYxzHENkT9L+mniDc61X3NVp432oAWcQSyKWfebahhNig10WADoyYQbmiNvQ8sWcZFjR8IxG8awxxzwLRZM/tu//RffY/nlwcraBnwCeD7R6y30DlGwVgIfpNzCptKo2w84lujstWn+N9aRrsrsBs7L/ZO0TWKnIsPoNnYQT/wCsfdfRzp/A36W8PU6eYnoUryrou1Jw2CCeG5gLUQBSHWuvge4mpjUU5X7iJbZkso7BLgSogCkulL/GnB7otcq601iskO2xgnSkDoTmG6Rbt79A2RqXrCMR4hnCiSVtwI4odOy4N3YC9yf6LW69Rxx7UFSl1osM0OopD3Ul4S7gKdr2rbUVHuBh1IWgBcSvE6vtte4bamJfgn8OeUpwGuJXqsXXgOQynuEeFR4b4u4kp5CiiOJXrmOoVTO08CnaO80W6RpLd0ipubW5b01bltqiueATxKL8gCRuCnuoa+gvjbiLdqzmiQt6WVi0d/H5/9lqlOAMeADCV6nF2uIBU0kLe41orX4fQu/0SLdXPqT6NxuPJfDgUNr2K7UBG8QTUN+s9g3W/TQTWQJU8QaflVqAR/HpcylxbwJXETc8ltUygJwAFFpqnQ4MadZ0r52Ecl/Q6d/1CLdPfQWcBaRlFUYA76EFwClhXYBXwd+QomL/OPALOkWHLiZdKsLdXIK8HrCcRvGMMRu4BK6vB63NfEALuxm4z2YAp5KOGbDGIaYBb5JDzvgexIPZIboNJzDgcBdicdrGE2PWeByerwg/qMMA/of6S/QrSVOMeYyjNfIF8VK0RtIe7q5XLxCfA6r/Fk3EzvUKj+js8TyeD1Pxz8/08BmiPORFHP1jyT6CZr8zYo54ojtQOIDejnVFIFtxHWiU9p/ruJn3QwcQyxYW9WOqu/kBzgq4wB3A3cCx9HbRKGVRIFKeZ3CqCbmJ3+hiiKwDfgY8Xlrtf+cuwgUyV9YQ/4iUBz29/0g3grgrcxv0AzR3+80YiXiTsXgAKJD8CXAH7EnYBNjseQv5CwC85O/kLsILEz+Qs4ikGTPP9/vMwxyqYE/297ejcBVxIfhu8RyxbcCj2H7ryZHp+Qv5CgCiyV/IVcRWCr5CzmKQPLkB/hGwgEaoxtlkr+Qsgh0Sv5CUQS2J/pZl0v+QsoikOywf6FcLcKN0Ylukr+QogiUSf5CqiJQNvkLa4hu2f0UgWzJDzF5YHMfgzNGO4rkn6R7/RSBbpK/0G8R6Db5C/0cCWRN/sKVPQzMMPpJ/sI4cBmws4vtbqf75C/0WgR6Tf5CL0WgkuSHeJzX++xGNzEH3EF/yV9YQVyLKlMEiuTvR7dFoN/kL3RzOlBZ8kO8IQ+XGJRhvEN8gG8hXX9JiCJwCZ1vS29lXofbPpUtAqmSv1CmCFSa/IXzOgzIMIookj9Vb8n5xoAvs/jTnv8APpR4e8sVgdTJX1jN0kWgluSHmHlX1dRJo5kxR8zXyJH8hTHgM8R8/mK7TxCzVnNYqgjkSv7CYkWgtuQvXEE1HySjeZFzz79QCzgZ2EL0nsy95NzCIpA7+Qvzi0DtyQ9wEC62Ybw7qkz++Q4mzpmrUBSd+6km+QurgV8Qd0JqTf7C96n/A2cMTlRx2D8oWtTzc04wQAvcrmXf8y9jdKNI/jq7PymD/Tt8bwfwHuDYisaiwbQXuB04m1hjXiNkNT6HP+rhnn+I7Vfi35wDXJ97IOrJd4BNGV9/L/AH3POPtHFiKa6690TGvnEXtkVXRdaTf8Ugo3zMAEd0/I1JJXS6CDjfduL2xIczjkXlXQr8migGUiUmgAepf+836rGx/buQKncUzhCsM7YTXZGk2pyHawbUEbNE81WpViuAH1B/QoxaXE41TVelZa0kfT9BY+m4Cc/7NWAOxg69VcSDpFluS0puGqcK54xNxKPZ0sA6huo7sI5CPAkc2sXvQarN8VgEUsZT5F/9RkrqeCwCKeIx3POroY7BBUX7iYeBQ7p+16UBciRx/lp3MjUt7iBWYZIaby3xuGrdSdWEmAOuwUU3NGQmiBmDThteOnYSXXAGYhVYKbUx4EzgRepPtkGLrcBJ9NbYUmqUKZw6PD/uBNb184ZKTXMA0fl1hvoTsK54nTjkdykvjawp4DbqT8aq415cxksC4pHi0xmN24VbgfNxry+9ywRwAcP5QNEM0WS1qp52UmOtAi4murHWnbj9xhbiWoeP8EpdGgfOIJ6Bb9L8gbn2mM/EQ32pb2PElOINDPbpwRbgKuIZCJfrkjJYQUyYuZpIuLr39I8R6/MdhUmvhivTG3CQtIjn5E8iuhYfTd4Vc94AHm/Ho8BDwL+InnlS4zWtACzUIgrA0cDhwGHEs/TriKvvy52P7wJeascL7a/PE7cn/0ok+54M45YkSZIkSZIkSZIkSZIkSZIkSZIkSZIkSZIkSZIkSZIkSZIkSZIkSZIkSZIkSZIkSZIkSZIkSZIkSZIkSZIkSZIkSZIkSZIkSZIkSZIkSZIkSZIkSZIkSZIkSZIkSZIkSZIkSZIkSWqU/wMrxcxEssRLrgAAAABJRU5ErkJggg==;" parent="irDOypoDd4D7YIuotiXx-1" vertex="1">
          <mxGeometry x="10" y="40" width="16" height="17" as="geometry" />
        </mxCell>
        <mxCell id="irDOypoDd4D7YIuotiXx-3" value="&lt;div style=&quot;&quot;&gt;&lt;span style=&quot;background-color: initial;&quot;&gt;Cerf_num&lt;/span&gt;&lt;/div&gt;&lt;div style=&quot;text-wrap: nowrap;&quot;&gt;Student_id&lt;br&gt;&lt;/div&gt;&lt;div style=&quot;&quot;&gt;&lt;span style=&quot;background-color: initial;&quot;&gt;PIN&lt;/span&gt;&lt;br&gt;&lt;/div&gt;&lt;div style=&quot;&quot;&gt;&lt;span style=&quot;background-color: initial;&quot;&gt;Creation_date&lt;/span&gt;&lt;/div&gt;&lt;div style=&quot;&quot;&gt;&lt;span style=&quot;text-wrap: nowrap;&quot;&gt;Efect_time&lt;br&gt;&lt;/span&gt;&lt;/div&gt;&lt;div style=&quot;&quot;&gt;&lt;span style=&quot;text-wrap: nowrap;&quot;&gt;Status&lt;/span&gt;&lt;/div&gt;" style="text;html=1;align=left;verticalAlign=middle;whiteSpace=wrap;rounded=0;fontColor=default;" parent="irDOypoDd4D7YIuotiXx-1" vertex="1">
          <mxGeometry x="35" y="20" width="140" height="130" as="geometry" />
        </mxCell>
        <mxCell id="f116n3Su3Wug5rZq3JyS-1" value="Condition" style="swimlane;whiteSpace=wrap;html=1;startSize=23;" parent="1" vertex="1">
          <mxGeometry x="-518" y="230" width="210" height="200" as="geometry" />
        </mxCell>
        <mxCell id="f116n3Su3Wug5rZq3JyS-2" value="" style="shape=image;verticalLabelPosition=bottom;labelBackgroundColor=default;verticalAlign=top;aspect=fixed;imageAspect=0;image=data:image/png,iVBORw0KGgoAAAANSUhEUgAAAQAAAAEACAYAAABccqhmAAAACXBIWXMAAA7EAAAOxAGVKw4bAAAMBElEQVR4nO3df4hlZRnA8a/XYRlk2JZlGWQxWUxliMFEZLFAMxGx8A8zMbM0KxMrUgmLiEDERGLrDwmTEDKVkigzUTNbw/wZalupmda21qbrqqmjrrq7zM7aH889MDvO3Dn33vc95557vx94mGVn95537tznOb/e8z4gSZIkSZIkSZIkSZIkSZIkSZIkSZIkSZIkSZIkSZIkSZIkSZIkSZIkSZIkSZIkSZIkSZIkSZIkSZIkSZIkSZIkSZIkSZIkSZIkSZIkSZIkSZIkSZIkSZIkSZIkSZIkSZIkSZIkSVI5+9U9gATGgWngSOAw4BBgElgFrAQmgLEF/2cv8Cbwdvvry8CrwAvAv4FngKeB/7T/rTSUmlgAVgHHAx8B1gNHAAdk2tarwJ+Au4C7gb8DezJtS9IiWsChwMXARmAn8E5NsRW4DjiDKESSMlkFfB64F5ilvqRfKmaA64mjkRV53gJptLSIQ/priQSrO8nLxmbgMuDw9s8gqQsriD3pbQzm3r5s7CSOCqaxEEjLGgNOIA7z607elLEb+DlwFO++AyGNvBZx2+5Wmr3HXy5mgZuBqTRvm9R8k8DVxF6y7gStKl4Hvk3MS5BG0hhwGjHRpu6ErCueAE7G0wKNmLXATcAc9Sdh3TFLzCVY09c7KjVACziOuE1Wd+INWjxBzGSUhtI4MXtvB/Un26DGDHAeTiTSkFkF3Ej9CdaEmCNOCZxarKFwEHAP9SdW02Ijca1Eaqxp4ty27mRqajxKPM4sNc56YBv1J1HT40mikEqNYfKnja3ENGJp4B2NyZ8jthBPF0oD61Dig1p3sgxrbCIuqkoDZxJ4mPqTZNhjI7C65O9EqsQE8SRf3ckxKnET+dY91Ajbv4f/MwZcAZybdijqYBrYBTxAFASpNqcz3M/wD2q8BZxY4vcjZTMFvEj9yTCqsRk4eNnfkpTBBPAg9SfBqMcteD1AiXRzDeBrwOdyDUSlTRGdjB4hCoKU3TSxrFXdez8jYoZYU1HKbpy4F133h97YNzbiqYD6VKY34LnE8+oaPBcBP6x7EMpqLxkb1C5XAFYCf8FHVAfVq8B92LB0mL0MXAq8lOPFl1ud9nxM/kG2Gji17kEou3XAZ8lQBDodAUwSi3tMpt6opK79lgxFoFP/uq9i8kuD4mRinc2kObnUEcAq4CngwJQbk9S33wFnk+hIYKkjgLMw+aVBdBJxJJCkscxiMwHHgR+n2oCk5N5HrBa1kWhJ37PFjgBOwG620qA7FbiWPheLWVgAWjjfX2qK0+izCCy8CDhJdO91iqnUHL8CvkhMDOvKwiOA0zH5pabp+Uhg/kzAFvDpVCOSVKnTiGcGvgC8UfY/zT8FmASexU61UpPdQEziK1UE5h8BnEi1yb+HeNDhVWKwE+1Y0/4qqXvntL+WKgLzC8BHswxnX28CzwB3A/cC/wT+C7xNFJ81xMNH69vjmcYJSVK3ziFO6b9CF0cC28m3eMUO4DZiFlPZvXsLeD+wgTg1qXsBDsNoWlxHyYv605kGMEc8UXgq/Z1eTBHTH3dnGqdhDGtcQ4kicEGGDc8RK9im6m03DlwIvJJhrIYxzHENkT9L+mniDc61X3NVp432oAWcQSyKWfebahhNig10WADoyYQbmiNvQ8sWcZFjR8IxG8awxxzwLRZM/tu//RffY/nlwcraBnwCeD7R6y30DlGwVgIfpNzCptKo2w84lujstWn+N9aRrsrsBs7L/ZO0TWKnIsPoNnYQT/wCsfdfRzp/A36W8PU6eYnoUryrou1Jw2CCeG5gLUQBSHWuvge4mpjUU5X7iJbZkso7BLgSogCkulL/GnB7otcq601iskO2xgnSkDoTmG6Rbt79A2RqXrCMR4hnCiSVtwI4odOy4N3YC9yf6LW69Rxx7UFSl1osM0OopD3Ul4S7gKdr2rbUVHuBh1IWgBcSvE6vtte4bamJfgn8OeUpwGuJXqsXXgOQynuEeFR4b4u4kp5CiiOJXrmOoVTO08CnaO80W6RpLd0ipubW5b01bltqiueATxKL8gCRuCnuoa+gvjbiLdqzmiQt6WVi0d/H5/9lqlOAMeADCV6nF2uIBU0kLe41orX4fQu/0SLdXPqT6NxuPJfDgUNr2K7UBG8QTUN+s9g3W/TQTWQJU8QaflVqAR/HpcylxbwJXETc8ltUygJwAFFpqnQ4MadZ0r52Ecl/Q6d/1CLdPfQWcBaRlFUYA76EFwClhXYBXwd+QomL/OPALOkWHLiZdKsLdXIK8HrCcRvGMMRu4BK6vB63NfEALuxm4z2YAp5KOGbDGIaYBb5JDzvgexIPZIboNJzDgcBdicdrGE2PWeByerwg/qMMA/of6S/QrSVOMeYyjNfIF8VK0RtIe7q5XLxCfA6r/Fk3EzvUKj+js8TyeD1Pxz8/08BmiPORFHP1jyT6CZr8zYo54ojtQOIDejnVFIFtxHWiU9p/ruJn3QwcQyxYW9WOqu/kBzgq4wB3A3cCx9HbRKGVRIFKeZ3CqCbmJ3+hiiKwDfgY8Xlrtf+cuwgUyV9YQ/4iUBz29/0g3grgrcxv0AzR3+80YiXiTsXgAKJD8CXAH7EnYBNjseQv5CwC85O/kLsILEz+Qs4ikGTPP9/vMwxyqYE/297ejcBVxIfhu8RyxbcCj2H7ryZHp+Qv5CgCiyV/IVcRWCr5CzmKQPLkB/hGwgEaoxtlkr+Qsgh0Sv5CUQS2J/pZl0v+QsoikOywf6FcLcKN0Ylukr+QogiUSf5CqiJQNvkLa4hu2f0UgWzJDzF5YHMfgzNGO4rkn6R7/RSBbpK/0G8R6Db5C/0cCWRN/sKVPQzMMPpJ/sI4cBmws4vtbqf75C/0WgR6Tf5CL0WgkuSHeJzX++xGNzEH3EF/yV9YQVyLKlMEiuTvR7dFoN/kL3RzOlBZ8kO8IQ+XGJRhvEN8gG8hXX9JiCJwCZ1vS29lXofbPpUtAqmSv1CmCFSa/IXzOgzIMIookj9Vb8n5xoAvs/jTnv8APpR4e8sVgdTJX1jN0kWgluSHmHlX1dRJo5kxR8zXyJH8hTHgM8R8/mK7TxCzVnNYqgjkSv7CYkWgtuQvXEE1HySjeZFzz79QCzgZ2EL0nsy95NzCIpA7+Qvzi0DtyQ9wEC62Ybw7qkz++Q4mzpmrUBSd+6km+QurgV8Qd0JqTf7C96n/A2cMTlRx2D8oWtTzc04wQAvcrmXf8y9jdKNI/jq7PymD/Tt8bwfwHuDYisaiwbQXuB04m1hjXiNkNT6HP+rhnn+I7Vfi35wDXJ97IOrJd4BNGV9/L/AH3POPtHFiKa6690TGvnEXtkVXRdaTf8Ugo3zMAEd0/I1JJXS6CDjfduL2xIczjkXlXQr8migGUiUmgAepf+836rGx/buQKncUzhCsM7YTXZGk2pyHawbUEbNE81WpViuAH1B/QoxaXE41TVelZa0kfT9BY+m4Cc/7NWAOxg69VcSDpFluS0puGqcK54xNxKPZ0sA6huo7sI5CPAkc2sXvQarN8VgEUsZT5F/9RkrqeCwCKeIx3POroY7BBUX7iYeBQ7p+16UBciRx/lp3MjUt7iBWYZIaby3xuGrdSdWEmAOuwUU3NGQmiBmDThteOnYSXXAGYhVYKbUx4EzgRepPtkGLrcBJ9NbYUmqUKZw6PD/uBNb184ZKTXMA0fl1hvoTsK54nTjkdykvjawp4DbqT8aq415cxksC4pHi0xmN24VbgfNxry+9ywRwAcP5QNEM0WS1qp52UmOtAi4murHWnbj9xhbiWoeP8EpdGgfOIJ6Bb9L8gbn2mM/EQ32pb2PElOINDPbpwRbgKuIZCJfrkjJYQUyYuZpIuLr39I8R6/MdhUmvhivTG3CQtIjn5E8iuhYfTd4Vc94AHm/Ho8BDwL+InnlS4zWtACzUIgrA0cDhwGHEs/TriKvvy52P7wJeascL7a/PE7cn/0ok+54M45YkSZIkSZIkSZIkSZIkSZIkSZIkSZIkSZIkSZIkSZIkSZIkSZIkSZIkSZIkSZIkSZIkSZIkSZIkSZIkSZIkSZIkSZIkSZIkSZIkSZIkSZIkSZIkSZIkSZIkSZIkSZIkSZIkSZIkSWqU/wMrxcxEssRLrgAAAABJRU5ErkJggg==;" parent="f116n3Su3Wug5rZq3JyS-1" vertex="1">
          <mxGeometry x="10" y="40" width="16" height="17" as="geometry" />
        </mxCell>
        <mxCell id="f116n3Su3Wug5rZq3JyS-3" value="&lt;div&gt;Condition_id&lt;br&gt;&lt;/div&gt;&lt;div&gt;Subject_id&lt;br&gt;&lt;/div&gt;&lt;div&gt;&lt;div&gt;&lt;span style=&quot;background-color: initial;&quot;&gt;Max_point&lt;/span&gt;&lt;br&gt;&lt;/div&gt;&lt;div&gt;&lt;span style=&quot;background-color: initial;&quot;&gt;Min_r_point&lt;/span&gt;&lt;/div&gt;&lt;div&gt;&lt;span style=&quot;background-color: initial;&quot;&gt;Min_point&lt;/span&gt;&lt;/div&gt;&lt;div&gt;&lt;span style=&quot;background-color: initial;&quot;&gt;Status&lt;/span&gt;&lt;/div&gt;&lt;/div&gt;&lt;div&gt;Date&lt;/div&gt;" style="text;html=1;align=left;verticalAlign=middle;whiteSpace=wrap;rounded=0;" parent="f116n3Su3Wug5rZq3JyS-1" vertex="1">
          <mxGeometry x="32" y="26" width="140" height="130" as="geometry" />
        </mxCell>
        <mxCell id="6Gk7Tn9jsqV94GsvEMMv-1" value="" style="endArrow=classic;html=1;rounded=0;" parent="1" edge="1">
          <mxGeometry width="50" height="50" relative="1" as="geometry">
            <mxPoint x="-520" y="60" as="sourcePoint" />
            <mxPoint x="-520" y="290" as="targetPoint" />
            <Array as="points">
              <mxPoint x="-560" y="60" />
              <mxPoint x="-560" y="180" />
              <mxPoint x="-560" y="290" />
            </Array>
          </mxGeometry>
        </mxCell>
        <mxCell id="6Gk7Tn9jsqV94GsvEMMv-2" value="" style="endArrow=classic;html=1;rounded=0;exitX=1;exitY=0.25;exitDx=0;exitDy=0;" parent="1" source="f116n3Su3Wug5rZq3JyS-1" edge="1">
          <mxGeometry width="50" height="50" relative="1" as="geometry">
            <mxPoint x="-250" y="350" as="sourcePoint" />
            <mxPoint x="-260" y="100" as="targetPoint" />
            <Array as="points">
              <mxPoint x="-290" y="280" />
              <mxPoint x="-290" y="100" />
              <mxPoint x="-280" y="100" />
            </Array>
          </mxGeometry>
        </mxCell>
        <mxCell id="6Gk7Tn9jsqV94GsvEMMv-4" value="" style="endArrow=classic;html=1;rounded=0;" parent="1" edge="1">
          <mxGeometry width="50" height="50" relative="1" as="geometry">
            <mxPoint x="20" y="290" as="sourcePoint" />
            <mxPoint x="-50" y="160" as="targetPoint" />
            <Array as="points">
              <mxPoint x="-20" y="290" />
              <mxPoint x="-20" y="160" />
            </Array>
          </mxGeometry>
        </mxCell>
        <mxCell id="6Gk7Tn9jsqV94GsvEMMv-5" value="" style="endArrow=classic;html=1;rounded=0;" parent="1" edge="1">
          <mxGeometry width="50" height="50" relative="1" as="geometry">
            <mxPoint x="10" y="60" as="sourcePoint" />
            <mxPoint x="-50" y="110" as="targetPoint" />
            <Array as="points">
              <mxPoint x="-20" y="60" />
              <mxPoint x="-20" y="110" />
            </Array>
          </mxGeometry>
        </mxCell>
        <mxCell id="6Gk7Tn9jsqV94GsvEMMv-7" value="" style="endArrow=classic;html=1;rounded=0;" parent="1" edge="1">
          <mxGeometry width="50" height="50" relative="1" as="geometry">
            <mxPoint x="220" y="60" as="sourcePoint" />
            <mxPoint x="270" y="80" as="targetPoint" />
            <Array as="points">
              <mxPoint x="250" y="60" />
              <mxPoint x="250" y="80" />
            </Array>
          </mxGeometry>
        </mxCell>
        <mxCell id="2cwa9mTlcjLHKuA1upOW-4" value="Users" style="swimlane;whiteSpace=wrap;html=1;" parent="1" vertex="1">
          <mxGeometry x="-260" y="240" width="210" height="200" as="geometry" />
        </mxCell>
        <mxCell id="2cwa9mTlcjLHKuA1upOW-5" value="&lt;div&gt;&lt;span style=&quot;background-color: initial;&quot;&gt;Login&lt;/span&gt;&lt;/div&gt;&lt;div&gt;&lt;span style=&quot;background-color: initial;&quot;&gt;Password&lt;/span&gt;&lt;br&gt;&lt;/div&gt;&lt;div&gt;Role&lt;/div&gt;&lt;div&gt;&lt;br&gt;&lt;/div&gt;" style="text;html=1;align=left;verticalAlign=middle;resizable=0;points=[];autosize=1;strokeColor=none;fillColor=none;" parent="2cwa9mTlcjLHKuA1upOW-4" vertex="1">
          <mxGeometry x="27" y="28" width="80" height="70" as="geometry" />
        </mxCell>
        <mxCell id="2cwa9mTlcjLHKuA1upOW-6" value="" style="shape=image;verticalLabelPosition=bottom;labelBackgroundColor=default;verticalAlign=top;aspect=fixed;imageAspect=0;image=data:image/png,iVBORw0KGgoAAAANSUhEUgAAAQAAAAEACAYAAABccqhmAAAACXBIWXMAAA7EAAAOxAGVKw4bAAAMBElEQVR4nO3df4hlZRnA8a/XYRlk2JZlGWQxWUxliMFEZLFAMxGx8A8zMbM0KxMrUgmLiEDERGLrDwmTEDKVkigzUTNbw/wZalupmda21qbrqqmjrrq7zM7aH889MDvO3Dn33vc95557vx94mGVn95537tznOb/e8z4gSZIkSZIkSZIkSZIkSZIkSZIkSZIkSZIkSZIkSZIkSZIkSZIkSZIkSZIkSZIkSZIkSZIkSZIkSZIkSZIkSZIkSZIkSZIkSZIkSZIkSZIkSZIkSZIkSZIkSZIkSZIkSZIkSZIkSVI5+9U9gATGgWngSOAw4BBgElgFrAQmgLEF/2cv8Cbwdvvry8CrwAvAv4FngKeB/7T/rTSUmlgAVgHHAx8B1gNHAAdk2tarwJ+Au4C7gb8DezJtS9IiWsChwMXARmAn8E5NsRW4DjiDKESSMlkFfB64F5ilvqRfKmaA64mjkRV53gJptLSIQ/priQSrO8nLxmbgMuDw9s8gqQsriD3pbQzm3r5s7CSOCqaxEEjLGgNOIA7z607elLEb+DlwFO++AyGNvBZx2+5Wmr3HXy5mgZuBqTRvm9R8k8DVxF6y7gStKl4Hvk3MS5BG0hhwGjHRpu6ErCueAE7G0wKNmLXATcAc9Sdh3TFLzCVY09c7KjVACziOuE1Wd+INWjxBzGSUhtI4MXtvB/Un26DGDHAeTiTSkFkF3Ej9CdaEmCNOCZxarKFwEHAP9SdW02Ijca1Eaqxp4ty27mRqajxKPM4sNc56YBv1J1HT40mikEqNYfKnja3ENGJp4B2NyZ8jthBPF0oD61Dig1p3sgxrbCIuqkoDZxJ4mPqTZNhjI7C65O9EqsQE8SRf3ckxKnET+dY91Ajbv4f/MwZcAZybdijqYBrYBTxAFASpNqcz3M/wD2q8BZxY4vcjZTMFvEj9yTCqsRk4eNnfkpTBBPAg9SfBqMcteD1AiXRzDeBrwOdyDUSlTRGdjB4hCoKU3TSxrFXdez8jYoZYU1HKbpy4F133h97YNzbiqYD6VKY34LnE8+oaPBcBP6x7EMpqLxkb1C5XAFYCf8FHVAfVq8B92LB0mL0MXAq8lOPFl1ud9nxM/kG2Gji17kEou3XAZ8lQBDodAUwSi3tMpt6opK79lgxFoFP/uq9i8kuD4mRinc2kObnUEcAq4CngwJQbk9S33wFnk+hIYKkjgLMw+aVBdBJxJJCkscxiMwHHgR+n2oCk5N5HrBa1kWhJ37PFjgBOwG620qA7FbiWPheLWVgAWjjfX2qK0+izCCy8CDhJdO91iqnUHL8CvkhMDOvKwiOA0zH5pabp+Uhg/kzAFvDpVCOSVKnTiGcGvgC8UfY/zT8FmASexU61UpPdQEziK1UE5h8BnEi1yb+HeNDhVWKwE+1Y0/4qqXvntL+WKgLzC8BHswxnX28CzwB3A/cC/wT+C7xNFJ81xMNH69vjmcYJSVK3ziFO6b9CF0cC28m3eMUO4DZiFlPZvXsLeD+wgTg1qXsBDsNoWlxHyYv605kGMEc8UXgq/Z1eTBHTH3dnGqdhDGtcQ4kicEGGDc8RK9im6m03DlwIvJJhrIYxzHENkT9L+mniDc61X3NVp432oAWcQSyKWfebahhNig10WADoyYQbmiNvQ8sWcZFjR8IxG8awxxzwLRZM/tu//RffY/nlwcraBnwCeD7R6y30DlGwVgIfpNzCptKo2w84lujstWn+N9aRrsrsBs7L/ZO0TWKnIsPoNnYQT/wCsfdfRzp/A36W8PU6eYnoUryrou1Jw2CCeG5gLUQBSHWuvge4mpjUU5X7iJbZkso7BLgSogCkulL/GnB7otcq601iskO2xgnSkDoTmG6Rbt79A2RqXrCMR4hnCiSVtwI4odOy4N3YC9yf6LW69Rxx7UFSl1osM0OopD3Ul4S7gKdr2rbUVHuBh1IWgBcSvE6vtte4bamJfgn8OeUpwGuJXqsXXgOQynuEeFR4b4u4kp5CiiOJXrmOoVTO08CnaO80W6RpLd0ipubW5b01bltqiueATxKL8gCRuCnuoa+gvjbiLdqzmiQt6WVi0d/H5/9lqlOAMeADCV6nF2uIBU0kLe41orX4fQu/0SLdXPqT6NxuPJfDgUNr2K7UBG8QTUN+s9g3W/TQTWQJU8QaflVqAR/HpcylxbwJXETc8ltUygJwAFFpqnQ4MadZ0r52Ecl/Q6d/1CLdPfQWcBaRlFUYA76EFwClhXYBXwd+QomL/OPALOkWHLiZdKsLdXIK8HrCcRvGMMRu4BK6vB63NfEALuxm4z2YAp5KOGbDGIaYBb5JDzvgexIPZIboNJzDgcBdicdrGE2PWeByerwg/qMMA/of6S/QrSVOMeYyjNfIF8VK0RtIe7q5XLxCfA6r/Fk3EzvUKj+js8TyeD1Pxz8/08BmiPORFHP1jyT6CZr8zYo54ojtQOIDejnVFIFtxHWiU9p/ruJn3QwcQyxYW9WOqu/kBzgq4wB3A3cCx9HbRKGVRIFKeZ3CqCbmJ3+hiiKwDfgY8Xlrtf+cuwgUyV9YQ/4iUBz29/0g3grgrcxv0AzR3+80YiXiTsXgAKJD8CXAH7EnYBNjseQv5CwC85O/kLsILEz+Qs4ikGTPP9/vMwxyqYE/297ejcBVxIfhu8RyxbcCj2H7ryZHp+Qv5CgCiyV/IVcRWCr5CzmKQPLkB/hGwgEaoxtlkr+Qsgh0Sv5CUQS2J/pZl0v+QsoikOywf6FcLcKN0Ylukr+QogiUSf5CqiJQNvkLa4hu2f0UgWzJDzF5YHMfgzNGO4rkn6R7/RSBbpK/0G8R6Db5C/0cCWRN/sKVPQzMMPpJ/sI4cBmws4vtbqf75C/0WgR6Tf5CL0WgkuSHeJzX++xGNzEH3EF/yV9YQVyLKlMEiuTvR7dFoN/kL3RzOlBZ8kO8IQ+XGJRhvEN8gG8hXX9JiCJwCZ1vS29lXofbPpUtAqmSv1CmCFSa/IXzOgzIMIookj9Vb8n5xoAvs/jTnv8APpR4e8sVgdTJX1jN0kWgluSHmHlX1dRJo5kxR8zXyJH8hTHgM8R8/mK7TxCzVnNYqgjkSv7CYkWgtuQvXEE1HySjeZFzz79QCzgZ2EL0nsy95NzCIpA7+Qvzi0DtyQ9wEC62Ybw7qkz++Q4mzpmrUBSd+6km+QurgV8Qd0JqTf7C96n/A2cMTlRx2D8oWtTzc04wQAvcrmXf8y9jdKNI/jq7PymD/Tt8bwfwHuDYisaiwbQXuB04m1hjXiNkNT6HP+rhnn+I7Vfi35wDXJ97IOrJd4BNGV9/L/AH3POPtHFiKa6690TGvnEXtkVXRdaTf8Ugo3zMAEd0/I1JJXS6CDjfduL2xIczjkXlXQr8migGUiUmgAepf+836rGx/buQKncUzhCsM7YTXZGk2pyHawbUEbNE81WpViuAH1B/QoxaXE41TVelZa0kfT9BY+m4Cc/7NWAOxg69VcSDpFluS0puGqcK54xNxKPZ0sA6huo7sI5CPAkc2sXvQarN8VgEUsZT5F/9RkrqeCwCKeIx3POroY7BBUX7iYeBQ7p+16UBciRx/lp3MjUt7iBWYZIaby3xuGrdSdWEmAOuwUU3NGQmiBmDThteOnYSXXAGYhVYKbUx4EzgRepPtkGLrcBJ9NbYUmqUKZw6PD/uBNb184ZKTXMA0fl1hvoTsK54nTjkdykvjawp4DbqT8aq415cxksC4pHi0xmN24VbgfNxry+9ywRwAcP5QNEM0WS1qp52UmOtAi4murHWnbj9xhbiWoeP8EpdGgfOIJ6Bb9L8gbn2mM/EQ32pb2PElOINDPbpwRbgKuIZCJfrkjJYQUyYuZpIuLr39I8R6/MdhUmvhivTG3CQtIjn5E8iuhYfTd4Vc94AHm/Ho8BDwL+InnlS4zWtACzUIgrA0cDhwGHEs/TriKvvy52P7wJeascL7a/PE7cn/0ok+54M45YkSZIkSZIkSZIkSZIkSZIkSZIkSZIkSZIkSZIkSZIkSZIkSZIkSZIkSZIkSZIkSZIkSZIkSZIkSZIkSZIkSZIkSZIkSZIkSZIkSZIkSZIkSZIkSZIkSZIkSZIkSZIkSZIkSZIkSWqU/wMrxcxEssRLrgAAAABJRU5ErkJggg==;" parent="2cwa9mTlcjLHKuA1upOW-4" vertex="1">
          <mxGeometry x="7" y="33" width="16" height="17" as="geometry" />
        </mxCell>
      </root>
    </mxGraphModel>
  </diagram>
</mxfile>
